<svg xmlns="http://www.w3.org/2000/svg" viewBox="0 0 470.15 348.48"><defs><style>.cls-1{fill:#fff;}</style></defs><title>logo-inverse</title><g id="Layer_2" data-name="Layer 2"><g id="Layer_1-2" data-name="Layer 1"><path class="cls-1" d="M467.57,221.08,255.13,8.65a29.53,29.53,0,0,0-41.77,0L.94,221.08a3.17,3.17,0,0,0,2.24,5.42h45.3a12.56,12.56,0,0,1,3.69-8.91L225.34,44.42a12.6,12.6,0,0,1,17.82,0L416.33,217.59A12.56,12.56,0,0,1,420,226.5h45.3A3.17,3.17,0,0,0,467.57,221.08Z"/><path class="cls-1" d="M204.22,225.12l-52.57-52.57a4.72,4.72,0,0,1,0-6.68l22-22a4.72,4.72,0,0,1,6.68,0l74.54,74.54a4.72,4.72,0,0,1-3.34,8.06H207.56A4.72,4.72,0,0,1,204.22,225.12Z"/><path class="cls-1" d="M99.16,225.1h0a4.77,4.77,0,0,1,0-6.75l21.9-21.9a4.77,4.77,0,0,1,6.75,0l21.9,21.9a4.77,4.77,0,0,1-3.38,8.15H102.54A4.77,4.77,0,0,1,99.16,225.1Z"/><path class="cls-1" d="M254.91,120.26l-21.63,21.63a5,5,0,0,1-7,0l-22.06-22.06a4.73,4.73,0,0,1,0-6.71l21.92-21.93a4.76,4.76,0,0,1,6.72,0l22.07,22.07A5,5,0,0,1,254.91,120.26Z"/><path class="cls-1" d="M356.47,226.29H314.66a9.69,9.69,0,0,1-6.86-2.84l-47-47.06a10.12,10.12,0,0,1,0-14.31l18-18a5,5,0,0,1,7,0l74.08,74.08A4.75,4.75,0,0,1,356.47,226.29Z"/><path class="cls-1" d="M41.8,290.43H19.3v12H39.8v15.82H19.3v28.21H.62V274.6H41.8Z"/><path class="cls-1" d="M73.35,310.54a37,37,0,0,1,23.69-35,45.68,45.68,0,0,1,32.07,0,37.87,37.87,0,0,1,12.63,8.05A36.88,36.88,0,0,1,150,295.62a39.14,39.14,0,0,1,0,29.83,36.86,36.86,0,0,1-8.25,12.06,37.85,37.85,0,0,1-12.63,8.05,45.68,45.68,0,0,1-32.07,0,37.17,37.17,0,0,1-23.69-35Zm19.54,0a19.13,19.13,0,0,0,1.62,7.91,19.79,19.79,0,0,0,10.82,10.44,21.16,21.16,0,0,0,15.54,0,20.36,20.36,0,0,0,6.48-4.15,19.63,19.63,0,0,0,4.43-6.29,20.13,20.13,0,0,0,0-15.82,19.67,19.67,0,0,0-4.43-6.29,21,21,0,0,0-22-4.15,19.79,19.79,0,0,0-10.82,10.44A19.13,19.13,0,0,0,92.89,310.54Z"/><path class="cls-1" d="M248.16,346.47H224.9l-17.82-27.64v27.64H188.39V274.6h29.07A28.55,28.55,0,0,1,228,276.37a19.74,19.74,0,0,1,11.77,11.87,24.59,24.59,0,0,1,1.48,8.58q0,8.2-4,13.3T225.57,317Zm-41.08-39.75h3.53q5.53,0,8.48-2.29a8.8,8.8,0,0,0,0-13.15q-3-2.29-8.48-2.29h-3.53Z"/><path class="cls-1" d="M276.37,346.47l12.2-71.87h18.49l14.39,38.32,14.3-38.32h18.49l12.2,71.87H347.86l-6.2-41.37-17,41.37h-7.44l-16.11-41.37L295,346.47Z"/><path class="cls-1" d="M445.94,334H419.25L415,346.47H395l27.36-71.87h20.4l27.36,71.87H450.23Zm-5-14.2-8.39-23.92-8.39,23.92Z"/></g></g></svg>