<svg xmlns="http://www.w3.org/2000/svg" xmlns:xlink="http://www.w3.org/1999/xlink" viewBox="0 0 481.85 378.09"><defs><style>.cls-1{fill:url(#linear-gradient);}.cls-2{fill:url(#linear-gradient-2);}.cls-3{fill:url(#linear-gradient-3);}.cls-4{fill:url(#linear-gradient-4);}.cls-5{fill:#0f2359;}.cls-6{opacity:0.8;}</style><linearGradient id="linear-gradient" x1="602.26" y1="-46.23" x2="935.4" y2="-46.23" gradientTransform="translate(-341.5 -287.62) rotate(45)" gradientUnits="userSpaceOnUse"><stop offset="0" stop-color="#283c86"/><stop offset="1" stop-color="#45a247"/></linearGradient><linearGradient id="linear-gradient-2" x1="669.79" y1="-43.99" x2="784.66" y2="-43.99" xlink:href="#linear-gradient"/><linearGradient id="linear-gradient-3" x1="669.79" y1="30.29" x2="710.31" y2="30.29" xlink:href="#linear-gradient"/><linearGradient id="linear-gradient-4" x1="258.38" y1="184.47" x2="361.82" y2="184.47" gradientTransform="matrix(1, 0, 0, 1, 0, 0)" xlink:href="#linear-gradient"/></defs><title>Asset 12</title><g id="Layer_2" data-name="Layer 2"><g id="Layer_1-2" data-name="Layer 1"><path class="cls-1" d="M468.16,221.08,255.72,8.65a29.53,29.53,0,0,0-41.77,0L1.52,221.08a3.17,3.17,0,0,0,2.24,5.42h45.3a12.56,12.56,0,0,1,3.69-8.91L225.93,44.42a12.6,12.6,0,0,1,17.82,0L416.92,217.59a12.56,12.56,0,0,1,3.69,8.91h45.3A3.17,3.17,0,0,0,468.16,221.08Z"/><path class="cls-2" d="M204.81,225.12l-52.57-52.57a4.72,4.72,0,0,1,0-6.68l22-22a4.72,4.72,0,0,1,6.68,0l74.54,74.54a4.72,4.72,0,0,1-3.34,8.06H208.15A4.72,4.72,0,0,1,204.81,225.12Z"/><path class="cls-3" d="M99.75,225.1h0a4.77,4.77,0,0,1,0-6.75l21.9-21.9a4.77,4.77,0,0,1,6.75,0l21.9,21.9a4.77,4.77,0,0,1-3.38,8.15H103.13A4.77,4.77,0,0,1,99.75,225.1Z"/><path class="cls-4" d="M357.06,226.29H315.25a9.69,9.69,0,0,1-6.86-2.84l-47-47.06a10.12,10.12,0,0,1,0-14.31l18-18a5,5,0,0,1,7,0l74.08,74.08A4.75,4.75,0,0,1,357.06,226.29Z"/><path class="cls-5" d="M34.56,275.43H15.68v10.08h17.2v13.28H15.68v23.68H0V262.15H34.56Z"/><path class="cls-5" d="M62.32,292.31a31.08,31.08,0,0,1,19.88-29.4,38.34,38.34,0,0,1,26.92,0,31.8,31.8,0,0,1,10.6,6.76,31,31,0,0,1,6.92,10.12,32.84,32.84,0,0,1,0,25A31,31,0,0,1,119.72,315a31.8,31.8,0,0,1-10.6,6.76,38.35,38.35,0,0,1-26.92,0,31.2,31.2,0,0,1-19.88-29.4Zm16.4,0A16.06,16.06,0,0,0,80.08,299a16.61,16.61,0,0,0,9.08,8.76,17.76,17.76,0,0,0,13,0,17.09,17.09,0,0,0,5.44-3.48,16.48,16.48,0,0,0,3.72-5.28,16.89,16.89,0,0,0,0-13.28,16.52,16.52,0,0,0-3.72-5.28,17.59,17.59,0,0,0-18.48-3.48,16.6,16.6,0,0,0-9.08,8.76A16.07,16.07,0,0,0,78.72,292.31Z"/><path class="cls-5" d="M210.32,322.47H190.8l-15-23.2v23.2H160.16V262.15h24.4a24,24,0,0,1,8.8,1.48,16.57,16.57,0,0,1,9.88,10,20.64,20.64,0,0,1,1.24,7.2q0,6.88-3.32,11.16t-9.8,5.8Zm-34.48-33.36h3q4.64,0,7.12-1.92a7.38,7.38,0,0,0,0-11q-2.48-1.92-7.12-1.92h-3Z"/><path class="cls-5" d="M235.28,322.47l10.24-60.32H261l12.08,32.16,12-32.16h15.52l10.24,60.32h-15.6l-5.2-34.72-14.24,34.72H269.6l-13.52-34.72-5.2,34.72Z"/><path class="cls-5" d="M375,277.59a19.4,19.4,0,0,0-5.12-3.08,13.62,13.62,0,0,0-5-1,8,8,0,0,0-5,1.44,4.49,4.49,0,0,0-1.92,3.76,3.73,3.73,0,0,0,1,2.64,8.33,8.33,0,0,0,2.52,1.8,21.32,21.32,0,0,0,3.52,1.32q2,.56,3.88,1.2,7.68,2.56,11.24,6.84t3.56,11.16a21.72,21.72,0,0,1-1.56,8.4,17.51,17.51,0,0,1-4.56,6.44,21,21,0,0,1-7.36,4.16,30.66,30.66,0,0,1-9.88,1.48,36.33,36.33,0,0,1-21.2-6.8l6.72-12.64a27.21,27.21,0,0,0,7,4.64,16.72,16.72,0,0,0,6.8,1.52q3.84,0,5.72-1.76a5.35,5.35,0,0,0,1.88-4,5.41,5.41,0,0,0-.48-2.36,5.11,5.11,0,0,0-1.6-1.84,12.82,12.82,0,0,0-2.92-1.56q-1.8-.72-4.36-1.6-3-1-6-2.12a18.7,18.7,0,0,1-5.2-3.08,14.28,14.28,0,0,1-3.68-4.84,17.1,17.1,0,0,1-1.4-7.4,21.37,21.37,0,0,1,1.48-8.12,18,18,0,0,1,4.16-6.24,18.53,18.53,0,0,1,6.56-4,24.79,24.79,0,0,1,8.68-1.44,38,38,0,0,1,9.36,1.24,41.35,41.35,0,0,1,9.36,3.64Z"/><path class="cls-5" d="M444.08,288.71H475.2a86.75,86.75,0,0,1-.4,8.72,31,31,0,0,1-1.6,7.28,29,29,0,0,1-4.56,8.36,26.65,26.65,0,0,1-6.76,6.08,31.74,31.74,0,0,1-8.52,3.72,36.58,36.58,0,0,1-9.76,1.28,34.29,34.29,0,0,1-12.84-2.32,29,29,0,0,1-10-6.52,29.5,29.5,0,0,1-6.48-10.08,35.1,35.1,0,0,1-2.32-13,35.46,35.46,0,0,1,2.28-12.92,28.36,28.36,0,0,1,6.48-10,29.45,29.45,0,0,1,10.12-6.48,35.89,35.89,0,0,1,13.2-2.32,32.73,32.73,0,0,1,16.56,4.08,28.25,28.25,0,0,1,11.28,12.64L457,283.35a15.15,15.15,0,0,0-5.4-7.12,13.56,13.56,0,0,0-7.56-2.16,15.18,15.18,0,0,0-6.4,1.32,13.87,13.87,0,0,0-4.92,3.76,18.05,18.05,0,0,0-3.2,5.88,23.94,23.94,0,0,0-1.16,7.68,24.27,24.27,0,0,0,1,7.12,16,16,0,0,0,3,5.68,13.51,13.51,0,0,0,5,3.72,16.75,16.75,0,0,0,6.88,1.32,19,19,0,0,0,4.48-.52,11.81,11.81,0,0,0,3.88-1.68,9.55,9.55,0,0,0,2.84-3,12,12,0,0,0,1.52-4.48H444.08Z"/><g class="cls-6"><path class="cls-5" d="M17.48,346.21V349H5.28v8.88H15.7v2.8H5.28v10.92H1.82V346.21Z"/><path class="cls-5" d="M27.42,353.37A9.22,9.22,0,0,1,31,354a7.5,7.5,0,0,1,2.7,1.86,8.25,8.25,0,0,1,1.7,2.92,12.61,12.61,0,0,1,0,7.65,8.26,8.26,0,0,1-1.7,2.91,7.4,7.4,0,0,1-2.7,1.85,10.08,10.08,0,0,1-7.11,0,7.48,7.48,0,0,1-2.7-1.85,8.29,8.29,0,0,1-1.72-2.91,12.45,12.45,0,0,1,0-7.65,8.29,8.29,0,0,1,1.72-2.92,7.58,7.58,0,0,1,2.7-1.86A9.22,9.22,0,0,1,27.42,353.37Zm0,16a4.61,4.61,0,0,0,4-1.78,10.13,10.13,0,0,0,0-10,4.6,4.6,0,0,0-4-1.79,5.52,5.52,0,0,0-2.34.46,4.38,4.38,0,0,0-1.66,1.33,5.91,5.91,0,0,0-1,2.14,12.64,12.64,0,0,0,0,5.72,5.82,5.82,0,0,0,1,2.12,4.41,4.41,0,0,0,1.66,1.32A5.51,5.51,0,0,0,27.42,369.4Z"/><path class="cls-5" d="M39.87,371.62v-18h1.81a1,1,0,0,1,.71.19,1.2,1.2,0,0,1,.27.67l.21,2.8a8.22,8.22,0,0,1,2.28-2.93,5.37,5.37,0,0,1,4.53-.89,4.74,4.74,0,0,1,1.12.47l-.41,2.36a.53.53,0,0,1-.55.44,2.75,2.75,0,0,1-.76-.17,4.81,4.81,0,0,0-1.44-.17,4.07,4.07,0,0,0-2.76,1A7.18,7.18,0,0,0,43,360.18v11.44Z"/><path class="cls-5" d="M54.16,371.62v-18H56a.8.8,0,0,1,.85.66l.23,1.84a9.23,9.23,0,0,1,2.23-2,5.24,5.24,0,0,1,2.86-.78,4.25,4.25,0,0,1,3,1,5.69,5.69,0,0,1,1.62,2.73,5.64,5.64,0,0,1,1-1.68,5.73,5.73,0,0,1,1.37-1.17,5.79,5.79,0,0,1,1.62-.67,7.26,7.26,0,0,1,1.75-.21,6.64,6.64,0,0,1,2.53.45,5,5,0,0,1,1.88,1.32,5.88,5.88,0,0,1,1.18,2.14,9.47,9.47,0,0,1,.41,2.9v11.44H75.35V360.18a4.85,4.85,0,0,0-.92-3.2,3.31,3.31,0,0,0-2.68-1.09,4,4,0,0,0-1.48.28A3.57,3.57,0,0,0,69,357a3.78,3.78,0,0,0-.84,1.34,5.19,5.19,0,0,0-.31,1.87v11.44H64.73V360.18a5,5,0,0,0-.87-3.23,3.08,3.08,0,0,0-2.54-1.06,4,4,0,0,0-2.17.63,7.11,7.11,0,0,0-1.84,1.71v13.39Z"/><path class="cls-5" d="M103.55,363.33q.19.47.36.95.18-.5.37-.95t.44-.91l8.6-15.62a1,1,0,0,1,.48-.5,2.22,2.22,0,0,1,.71-.09h2.54v25.41h-3V352.94q0-.37,0-.8c0-.28,0-.57.05-.87l-8.71,15.89a1.37,1.37,0,0,1-1.24.8h-.5a1.37,1.37,0,0,1-1.24-.8l-8.9-15.94q.05.46.08.9t0,.82v18.67h-3V346.21h2.54a2.22,2.22,0,0,1,.71.09,1,1,0,0,1,.48.5l8.78,15.64A6.64,6.64,0,0,1,103.55,363.33Z"/><path class="cls-5" d="M135.94,371.62h-1.4a1.67,1.67,0,0,1-.75-.14.78.78,0,0,1-.37-.6l-.36-1.67q-.71.64-1.38,1.14a7.91,7.91,0,0,1-1.42.85,7.34,7.34,0,0,1-1.59.52,9.1,9.1,0,0,1-1.87.18,6.38,6.38,0,0,1-2-.29,4.45,4.45,0,0,1-1.59-.88,4.2,4.2,0,0,1-1.07-1.49,5.21,5.21,0,0,1-.4-2.13,4,4,0,0,1,.58-2.05,5.16,5.16,0,0,1,1.89-1.75,12.28,12.28,0,0,1,3.41-1.25,23.23,23.23,0,0,1,5.16-.49v-1.41a4.89,4.89,0,0,0-.89-3.18,3.25,3.25,0,0,0-2.65-1.08,5.61,5.61,0,0,0-1.94.29,7.37,7.37,0,0,0-1.37.66q-.58.36-1,.66a1.44,1.44,0,0,1-.82.29,1,1,0,0,1-.56-.17,1.28,1.28,0,0,1-.38-.42l-.57-1a10.27,10.27,0,0,1,3.21-2.15,9.91,9.91,0,0,1,3.81-.71,6.8,6.8,0,0,1,2.68.5,5.5,5.5,0,0,1,2,1.38,5.87,5.87,0,0,1,1.21,2.15,8.94,8.94,0,0,1,.41,2.77Zm-8.19-1.93a6.39,6.39,0,0,0,1.52-.17,6,6,0,0,0,1.3-.48,6.93,6.93,0,0,0,1.17-.75,9.93,9.93,0,0,0,1.09-1v-3.71a21.14,21.14,0,0,0-3.71.28,10.38,10.38,0,0,0-2.48.72,3.47,3.47,0,0,0-1.39,1.05,2.27,2.27,0,0,0-.43,1.36,3,3,0,0,0,.23,1.23,2.33,2.33,0,0,0,.62.85,2.45,2.45,0,0,0,.92.48A4.21,4.21,0,0,0,127.75,369.68Z"/><path class="cls-5" d="M140.73,371.62v-18h1.88a.8.8,0,0,1,.85.66l.25,2a10.09,10.09,0,0,1,2.62-2.09,6.8,6.8,0,0,1,3.34-.8,6.5,6.5,0,0,1,2.6.49,5,5,0,0,1,1.88,1.38,6.1,6.1,0,0,1,1.14,2.15,9.39,9.39,0,0,1,.39,2.78v11.44h-3.16V360.18a4.84,4.84,0,0,0-.93-3.17,3.48,3.48,0,0,0-2.85-1.13,5.31,5.31,0,0,0-2.62.67,8.62,8.62,0,0,0-2.24,1.83v13.23Z"/><path class="cls-5" d="M173.64,371.62h-1.4a1.67,1.67,0,0,1-.75-.14.78.78,0,0,1-.37-.6l-.36-1.67q-.71.64-1.38,1.14a7.92,7.92,0,0,1-1.42.85,7.33,7.33,0,0,1-1.59.52,9.09,9.09,0,0,1-1.87.18,6.38,6.38,0,0,1-2-.29,4.45,4.45,0,0,1-1.59-.88,4.21,4.21,0,0,1-1.07-1.49,5.2,5.2,0,0,1-.4-2.13,4,4,0,0,1,.59-2.05A5.15,5.15,0,0,1,162,363.3a12.27,12.27,0,0,1,3.41-1.25,23.24,23.24,0,0,1,5.16-.49v-1.41a4.89,4.89,0,0,0-.89-3.18,3.25,3.25,0,0,0-2.65-1.08,5.61,5.61,0,0,0-1.94.29,7.39,7.39,0,0,0-1.37.66q-.58.36-1,.66a1.44,1.44,0,0,1-.82.29.94.94,0,0,1-.56-.17,1.28,1.28,0,0,1-.38-.42l-.57-1a10.26,10.26,0,0,1,3.21-2.15,9.91,9.91,0,0,1,3.81-.71,6.8,6.8,0,0,1,2.68.5,5.5,5.5,0,0,1,2,1.38,5.87,5.87,0,0,1,1.21,2.15,8.94,8.94,0,0,1,.41,2.77Zm-8.19-1.93a6.39,6.39,0,0,0,1.52-.17,6,6,0,0,0,1.3-.48,6.94,6.94,0,0,0,1.17-.75,9.93,9.93,0,0,0,1.09-1v-3.71a21.13,21.13,0,0,0-3.71.28,10.36,10.36,0,0,0-2.48.72,3.46,3.46,0,0,0-1.39,1.05,2.28,2.28,0,0,0-.43,1.36,3,3,0,0,0,.23,1.23,2.32,2.32,0,0,0,.62.85,2.45,2.45,0,0,0,.92.48A4.21,4.21,0,0,0,165.45,369.68Z"/><path class="cls-5" d="M184.47,353.35a9,9,0,0,1,2.19.26,6.91,6.91,0,0,1,1.85.75h4.88v1.17q0,.59-.75.75l-2,.28a5.82,5.82,0,0,1,.1,5,5.4,5.4,0,0,1-1.4,1.84,6.3,6.3,0,0,1-2.13,1.17,8.55,8.55,0,0,1-2.7.41,9.08,9.08,0,0,1-2.38-.3,3,3,0,0,0-.86.79,1.45,1.45,0,0,0-.29.83,1.12,1.12,0,0,0,.51,1,3.56,3.56,0,0,0,1.37.49,11.46,11.46,0,0,0,1.93.15H187a12.25,12.25,0,0,1,2.21.2,6.69,6.69,0,0,1,1.93.65,3.6,3.6,0,0,1,1.37,1.24,3.69,3.69,0,0,1,.51,2,4.81,4.81,0,0,1-.58,2.26,6.12,6.12,0,0,1-1.66,1.95,8.51,8.51,0,0,1-2.64,1.36,11.31,11.31,0,0,1-3.53.51,13.62,13.62,0,0,1-3.45-.39,8.08,8.08,0,0,1-2.46-1,4.57,4.57,0,0,1-1.46-1.52,3.61,3.61,0,0,1-.49-1.8,3.25,3.25,0,0,1,.84-2.26,5.77,5.77,0,0,1,2.31-1.48,3.17,3.17,0,0,1-1.21-.95,2.55,2.55,0,0,1-.45-1.58,2.49,2.49,0,0,1,.14-.8,3.16,3.16,0,0,1,.43-.82A4.65,4.65,0,0,1,180.5,364a5.58,5.58,0,0,1-2.08-2,5.4,5.4,0,0,1-.75-2.88,5.53,5.53,0,0,1,.5-2.38,5.3,5.3,0,0,1,1.41-1.83,6.46,6.46,0,0,1,2.16-1.16A8.77,8.77,0,0,1,184.47,353.35Zm5.6,19.17a1.59,1.59,0,0,0-.37-1.1,2.4,2.4,0,0,0-1-.64,7.23,7.23,0,0,0-1.47-.33,13.6,13.6,0,0,0-1.75-.11h-1.88a6.86,6.86,0,0,1-1.83-.24,5.18,5.18,0,0,0-1.64,1.17,2.37,2.37,0,0,0-.63,1.65,2.18,2.18,0,0,0,.31,1.13,2.65,2.65,0,0,0,.95.91,5.55,5.55,0,0,0,1.6.6,10.32,10.32,0,0,0,2.28.22,10.1,10.1,0,0,0,2.29-.24,5.67,5.67,0,0,0,1.71-.67,3.25,3.25,0,0,0,1.07-1A2.45,2.45,0,0,0,190.08,372.53Zm-5.6-9.69a5,5,0,0,0,1.69-.27,3.43,3.43,0,0,0,1.23-.75,3,3,0,0,0,.74-1.14,4.14,4.14,0,0,0,.25-1.46,3.5,3.5,0,0,0-1-2.62,4.82,4.82,0,0,0-5.82,0,3.49,3.49,0,0,0-1,2.62,4,4,0,0,0,.26,1.46,3.14,3.14,0,0,0,.75,1.14,3.44,3.44,0,0,0,1.22.75A4.84,4.84,0,0,0,184.47,362.84Z"/><path class="cls-5" d="M203.66,353.37a8,8,0,0,1,3,.54,6.69,6.69,0,0,1,2.36,1.56,7.13,7.13,0,0,1,1.55,2.52,9.73,9.73,0,0,1,.56,3.41,2.05,2.05,0,0,1-.16,1,.66.66,0,0,1-.6.25h-12a9.9,9.9,0,0,0,.46,3,6,6,0,0,0,1.17,2.1,4.68,4.68,0,0,0,1.77,1.26,6.08,6.08,0,0,0,2.31.42,6.74,6.74,0,0,0,2-.27,9.76,9.76,0,0,0,1.48-.59,11.16,11.16,0,0,0,1-.59,1.38,1.38,0,0,1,.72-.27.7.7,0,0,1,.6.3l.89,1.15a6,6,0,0,1-1.4,1.23,8.72,8.72,0,0,1-1.75.86,11.08,11.08,0,0,1-1.92.51,11.75,11.75,0,0,1-2,.17,9.14,9.14,0,0,1-3.43-.63,7.51,7.51,0,0,1-2.71-1.84,8.45,8.45,0,0,1-1.78-3,12.22,12.22,0,0,1-.64-4.11,10.45,10.45,0,0,1,.58-3.51,8.24,8.24,0,0,1,1.66-2.83,7.63,7.63,0,0,1,2.64-1.88A8.68,8.68,0,0,1,203.66,353.37Zm.07,2.32a4.85,4.85,0,0,0-3.6,1.32,6.22,6.22,0,0,0-1.63,3.66h9.77a6.39,6.39,0,0,0-.3-2,4.48,4.48,0,0,0-.89-1.58,4,4,0,0,0-1.43-1A4.82,4.82,0,0,0,203.73,355.69Z"/><path class="cls-5" d="M215.13,371.62v-18h1.81a1,1,0,0,1,.71.19,1.21,1.21,0,0,1,.27.67l.21,2.8a8.21,8.21,0,0,1,2.28-2.93,5.37,5.37,0,0,1,4.53-.89,4.74,4.74,0,0,1,1.12.47l-.41,2.36a.53.53,0,0,1-.55.44,2.76,2.76,0,0,1-.76-.17,4.8,4.8,0,0,0-1.44-.17,4.07,4.07,0,0,0-2.76,1,7.19,7.19,0,0,0-1.85,2.78v11.44Z"/><path class="cls-5" d="M237,371.62V356.35l-2-.23a1.57,1.57,0,0,1-.61-.27.64.64,0,0,1-.24-.54V354H237v-1.74a8,8,0,0,1,.43-2.74,5.56,5.56,0,0,1,1.24-2,5.27,5.27,0,0,1,1.94-1.25,7.24,7.24,0,0,1,2.55-.43,6.81,6.81,0,0,1,2.23.35l-.07,1.58a.4.4,0,0,1-.3.43,3.44,3.44,0,0,1-.8.07h-.55a4.83,4.83,0,0,0-1.48.21,2.8,2.8,0,0,0-1.14.69,3.12,3.12,0,0,0-.74,1.26,6.23,6.23,0,0,0-.26,1.93V354h5.2v2.29h-5.09v15.32Z"/><path class="cls-5" d="M255.49,353.37A9.22,9.22,0,0,1,259,354a7.51,7.51,0,0,1,2.7,1.86,8.27,8.27,0,0,1,1.7,2.92,12.62,12.62,0,0,1,0,7.65,8.27,8.27,0,0,1-1.7,2.91,7.4,7.4,0,0,1-2.7,1.85,10.08,10.08,0,0,1-7.11,0,7.48,7.48,0,0,1-2.7-1.85,8.28,8.28,0,0,1-1.72-2.91,12.43,12.43,0,0,1,0-7.65,8.27,8.27,0,0,1,1.72-2.92,7.58,7.58,0,0,1,2.7-1.86A9.22,9.22,0,0,1,255.49,353.37Zm0,16a4.61,4.61,0,0,0,4-1.78,10.14,10.14,0,0,0,0-10,4.6,4.6,0,0,0-4-1.79,5.52,5.52,0,0,0-2.34.46,4.39,4.39,0,0,0-1.66,1.33,5.91,5.91,0,0,0-1,2.14,12.62,12.62,0,0,0,0,5.72,5.82,5.82,0,0,0,1,2.12,4.41,4.41,0,0,0,1.66,1.32A5.5,5.5,0,0,0,255.49,369.4Z"/><path class="cls-5" d="M267.93,371.62v-18h1.81a1,1,0,0,1,.71.19,1.21,1.21,0,0,1,.27.67l.21,2.8a8.21,8.21,0,0,1,2.28-2.93,5.37,5.37,0,0,1,4.53-.89,4.74,4.74,0,0,1,1.12.47l-.41,2.36a.53.53,0,0,1-.55.44,2.75,2.75,0,0,1-.76-.17,4.81,4.81,0,0,0-1.44-.17,4.07,4.07,0,0,0-2.76,1,7.18,7.18,0,0,0-1.85,2.78v11.44Z"/><path class="cls-5" d="M300.9,369.12a16.75,16.75,0,0,0,1.89-.1,11.8,11.8,0,0,0,1.62-.29,11,11,0,0,0,1.44-.47q.67-.27,1.35-.63V362h-3.94a.75.75,0,0,1-.54-.2.64.64,0,0,1-.2-.48v-2h7.8v9.75a14.07,14.07,0,0,1-2,1.21,13.58,13.58,0,0,1-2.22.86,16,16,0,0,1-2.53.51,23.66,23.66,0,0,1-2.93.17,13.19,13.19,0,0,1-5.07-.95,11.67,11.67,0,0,1-4-2.66,12.11,12.11,0,0,1-2.6-4.11,14.42,14.42,0,0,1-.93-5.27,14.78,14.78,0,0,1,.91-5.3,11.4,11.4,0,0,1,6.7-6.76,14.68,14.68,0,0,1,5.38-.94,16.65,16.65,0,0,1,2.8.22,13,13,0,0,1,2.4.64,11.16,11.16,0,0,1,2,1,12.47,12.47,0,0,1,1.75,1.34l-1,1.56a.9.9,0,0,1-.78.48,1.26,1.26,0,0,1-.62-.2q-.44-.25-1-.6a8.66,8.66,0,0,0-1.34-.68,10.86,10.86,0,0,0-1.86-.56,12.21,12.21,0,0,0-2.54-.23,10.31,10.31,0,0,0-3.88.7,8.22,8.22,0,0,0-3,2,8.88,8.88,0,0,0-1.88,3.16,12.4,12.4,0,0,0-.66,4.16,12.61,12.61,0,0,0,.68,4.3,9.09,9.09,0,0,0,1.92,3.2,8.3,8.3,0,0,0,2.94,2A9.9,9.9,0,0,0,300.9,369.12Z"/><path class="cls-5" d="M322.37,353.37a9.22,9.22,0,0,1,3.56.66,7.51,7.51,0,0,1,2.7,1.86,8.27,8.27,0,0,1,1.7,2.92,12.62,12.62,0,0,1,0,7.65,8.27,8.27,0,0,1-1.7,2.91,7.4,7.4,0,0,1-2.7,1.85,10.08,10.08,0,0,1-7.11,0,7.48,7.48,0,0,1-2.7-1.85,8.28,8.28,0,0,1-1.72-2.91,12.43,12.43,0,0,1,0-7.65,8.27,8.27,0,0,1,1.72-2.92,7.58,7.58,0,0,1,2.7-1.86A9.22,9.22,0,0,1,322.37,353.37Zm0,16a4.61,4.61,0,0,0,4-1.78,10.14,10.14,0,0,0,0-10,4.6,4.6,0,0,0-4-1.79,5.52,5.52,0,0,0-2.34.46,4.39,4.39,0,0,0-1.66,1.33,5.91,5.91,0,0,0-1,2.14,12.62,12.62,0,0,0,0,5.72,5.82,5.82,0,0,0,1,2.12,4.41,4.41,0,0,0,1.66,1.32A5.5,5.5,0,0,0,322.37,369.4Z"/><path class="cls-5" d="M332.09,353.65h2.59a1,1,0,0,1,.62.19,1.1,1.1,0,0,1,.35.46l4.56,11.56a8.88,8.88,0,0,1,.39,1.28q.14.64.27,1.26.14-.62.3-1.26a10.61,10.61,0,0,1,.41-1.28l4.61-11.56a1.06,1.06,0,0,1,.35-.47.94.94,0,0,1,.59-.19h2.46l-7.32,18h-2.85Z"/><path class="cls-5" d="M359.16,353.37a8,8,0,0,1,3,.54,6.69,6.69,0,0,1,2.36,1.56,7.11,7.11,0,0,1,1.55,2.52,9.73,9.73,0,0,1,.56,3.41,2.06,2.06,0,0,1-.16,1,.66.66,0,0,1-.6.25h-12a9.93,9.93,0,0,0,.46,3,6,6,0,0,0,1.17,2.1A4.67,4.67,0,0,0,357.3,369a6.07,6.07,0,0,0,2.3.42,6.75,6.75,0,0,0,2-.27,9.78,9.78,0,0,0,1.48-.59,11.07,11.07,0,0,0,1-.59,1.38,1.38,0,0,1,.72-.27.7.7,0,0,1,.6.3l.89,1.15a6,6,0,0,1-1.4,1.23,8.72,8.72,0,0,1-1.75.86,11.08,11.08,0,0,1-1.92.51,11.75,11.75,0,0,1-2,.17,9.15,9.15,0,0,1-3.43-.63,7.53,7.53,0,0,1-2.71-1.84,8.46,8.46,0,0,1-1.78-3,12.24,12.24,0,0,1-.64-4.11,10.45,10.45,0,0,1,.58-3.51,8.27,8.27,0,0,1,1.66-2.83,7.64,7.64,0,0,1,2.64-1.88A8.67,8.67,0,0,1,359.16,353.37Zm.07,2.32a4.85,4.85,0,0,0-3.6,1.32,6.22,6.22,0,0,0-1.63,3.66h9.77a6.39,6.39,0,0,0-.3-2,4.48,4.48,0,0,0-.89-1.58,4,4,0,0,0-1.43-1A4.82,4.82,0,0,0,359.24,355.69Z"/><path class="cls-5" d="M370.64,371.62v-18h1.81a1,1,0,0,1,.71.19,1.21,1.21,0,0,1,.27.67l.21,2.8a8.21,8.21,0,0,1,2.28-2.93,5.37,5.37,0,0,1,4.53-.89,4.74,4.74,0,0,1,1.12.47l-.41,2.36a.53.53,0,0,1-.55.44,2.75,2.75,0,0,1-.76-.17,4.81,4.81,0,0,0-1.44-.17,4.07,4.07,0,0,0-2.76,1,7.18,7.18,0,0,0-1.85,2.78v11.44Z"/><path class="cls-5" d="M384.93,371.62v-18h1.88a.8.8,0,0,1,.85.66l.25,2a10.09,10.09,0,0,1,2.62-2.09,6.8,6.8,0,0,1,3.34-.8,6.5,6.5,0,0,1,2.6.49,5,5,0,0,1,1.88,1.38,6.1,6.1,0,0,1,1.14,2.15,9.39,9.39,0,0,1,.39,2.78v11.44h-3.16V360.18a4.84,4.84,0,0,0-.93-3.17,3.48,3.48,0,0,0-2.85-1.13,5.32,5.32,0,0,0-2.62.67,8.64,8.64,0,0,0-2.24,1.83v13.23Z"/><path class="cls-5" d="M404.65,371.62v-18h1.88a.8.8,0,0,1,.85.66l.23,1.84a9.24,9.24,0,0,1,2.23-2,5.24,5.24,0,0,1,2.86-.78,4.25,4.25,0,0,1,3,1,5.69,5.69,0,0,1,1.62,2.73,5.63,5.63,0,0,1,1-1.68,5.7,5.7,0,0,1,1.37-1.17,5.8,5.8,0,0,1,1.62-.67,7.26,7.26,0,0,1,1.75-.21,6.63,6.63,0,0,1,2.53.45,5,5,0,0,1,1.88,1.32,5.88,5.88,0,0,1,1.18,2.14,9.44,9.44,0,0,1,.41,2.9v11.44h-3.16V360.18a4.85,4.85,0,0,0-.92-3.2,3.31,3.31,0,0,0-2.68-1.09,4,4,0,0,0-1.48.28,3.57,3.57,0,0,0-1.23.81,3.78,3.78,0,0,0-.84,1.34,5.21,5.21,0,0,0-.31,1.87v11.44h-3.16V360.18a5,5,0,0,0-.87-3.23,3.08,3.08,0,0,0-2.54-1.06,4,4,0,0,0-2.17.63,7.12,7.12,0,0,0-1.83,1.71v13.39Z"/><path class="cls-5" d="M440.87,353.37a8,8,0,0,1,3,.54,6.69,6.69,0,0,1,2.36,1.56,7.11,7.11,0,0,1,1.55,2.52,9.73,9.73,0,0,1,.56,3.41,2.06,2.06,0,0,1-.16,1,.66.66,0,0,1-.6.25h-12a9.93,9.93,0,0,0,.46,3,6,6,0,0,0,1.17,2.1A4.67,4.67,0,0,0,439,369a6.07,6.07,0,0,0,2.3.42,6.75,6.75,0,0,0,2-.27,9.78,9.78,0,0,0,1.48-.59,11.07,11.07,0,0,0,1-.59,1.38,1.38,0,0,1,.72-.27.7.7,0,0,1,.6.3l.89,1.15a6,6,0,0,1-1.4,1.23,8.72,8.72,0,0,1-1.75.86,11.08,11.08,0,0,1-1.92.51,11.75,11.75,0,0,1-2,.17,9.15,9.15,0,0,1-3.43-.63,7.53,7.53,0,0,1-2.71-1.84,8.46,8.46,0,0,1-1.78-3,12.24,12.24,0,0,1-.64-4.11,10.45,10.45,0,0,1,.58-3.51,8.27,8.27,0,0,1,1.66-2.83,7.64,7.64,0,0,1,2.64-1.88A8.67,8.67,0,0,1,440.87,353.37Zm.07,2.32a4.85,4.85,0,0,0-3.6,1.32,6.22,6.22,0,0,0-1.63,3.66h9.77a6.39,6.39,0,0,0-.3-2,4.48,4.48,0,0,0-.89-1.58,4,4,0,0,0-1.43-1A4.82,4.82,0,0,0,440.94,355.69Z"/><path class="cls-5" d="M452.34,371.62v-18h1.88a.8.8,0,0,1,.85.66l.25,2a10.09,10.09,0,0,1,2.62-2.09,6.8,6.8,0,0,1,3.34-.8,6.5,6.5,0,0,1,2.6.49,5,5,0,0,1,1.88,1.38,6.1,6.1,0,0,1,1.14,2.15,9.39,9.39,0,0,1,.39,2.78v11.44h-3.16V360.18a4.84,4.84,0,0,0-.93-3.17,3.48,3.48,0,0,0-2.85-1.13,5.32,5.32,0,0,0-2.62.67,8.64,8.64,0,0,0-2.24,1.83v13.23Z"/><path class="cls-5" d="M477.5,371.9a4.33,4.33,0,0,1-3.27-1.19,4.74,4.74,0,0,1-1.14-3.42v-11h-2.16a.71.71,0,0,1-.48-.17.65.65,0,0,1-.2-.52v-1.26l2.94-.37.73-5.55a.68.68,0,0,1,.23-.43.73.73,0,0,1,.5-.17h1.6V354h5.14v2.29h-5.14v10.78a2.29,2.29,0,0,0,.55,1.68,1.92,1.92,0,0,0,1.42.55,2.5,2.5,0,0,0,.86-.13,3.65,3.65,0,0,0,.63-.29l.45-.29a.59.59,0,0,1,.33-.13.55.55,0,0,1,.44.3l.92,1.51a5.88,5.88,0,0,1-2,1.2A6.69,6.69,0,0,1,477.5,371.9Z"/></g></g></g></svg>