<?xml version="1.0" encoding="UTF-8" standalone="no"?>
<svg width="265px" height="145px" viewBox="0 0 265 145" version="1.1" xmlns="http://www.w3.org/2000/svg" xmlns:xlink="http://www.w3.org/1999/xlink">
    <!-- Generator: Sketch 39.1 (31720) - http://www.bohemiancoding.com/sketch -->
    <title>Group Copy 24</title>
    <desc>Created with Sketch.</desc>
    <defs></defs>
    <g id="Final-Sticker" stroke="none" stroke-width="1" fill="none" fill-rule="evenodd">
        <g id="Yellow-Copy" transform="translate(-126.000000, -187.000000)" fill="#FFFFFF">
            <g id="Group-Copy-24" transform="translate(126.000000, 187.000000)">
                <rect id="Rectangle-1-Copy-17" x="0" y="0" width="265" height="16.1111111" rx="8"></rect>
                <rect id="Rectangle-1-Copy-16" x="0" y="128.888889" width="142.195122" height="16.1111111" rx="8"></rect>
                <path d="M19.3902439,106.333333 L19.3902439,48.3333333 L6.46341463,48.3333333 L6.46341463,38.6666667 L42.0121951,38.6666667 L42.0121951,48.3333333 L29.0853659,48.3333333 L29.0853659,106.333333 L19.3902439,106.333333 Z M53.4367854,105.804688 C51.7073084,104.999128 50.3313218,103.94814 49.3087843,102.651693 C48.2862468,101.355245 47.4593924,99.6938035 46.8281965,97.6673177 C46.1970005,95.6408319 45.7614818,93.6143765 45.5216273,91.5878906 C45.2817728,89.5614048 45.1365999,87.2014024 45.0861042,84.5078125 C45.0103607,82.3932186 45.0103607,80.2786564 45.0861042,78.1640625 C45.1618477,75.6466888 45.3322681,73.4125532 45.5973704,71.4615885 C45.8624727,69.5106239 46.3232389,67.6163286 46.9796827,65.7786458 C47.6361266,63.940963 48.4882284,62.4305615 49.5360137,61.2473958 C50.5837991,60.0642302 51.9597857,59.1139359 53.6640149,58.3964844 C55.368244,57.6790329 57.3564816,57.3203125 59.6287872,57.3203125 C61.69911,57.3203125 63.5232391,57.5909261 65.101229,58.1321615 C66.679219,58.6733968 67.992087,59.491531 69.0398723,60.5865885 C70.0876577,61.6816461 70.9586951,62.8962607 71.6530107,64.2304688 C72.3473263,65.5646768 72.8712111,67.1820651 73.2246808,69.0826823 C73.5781506,70.9832994 73.8243133,72.8524214 73.9631764,74.6901042 C74.1020396,76.527787 74.1714701,78.6423492 74.1714701,81.0338542 L74.1714701,82.1666667 L54.7812262,82.1666667 L54.7812262,84.5833333 L54.7812262,86.1315104 C54.7307305,87.0629387 54.7244186,88.0258197 54.7622904,89.0201823 C54.8001622,90.0145449 54.8443452,90.9900126 54.8948409,91.9466146 C54.9453366,92.9032166 55.0841976,93.8157509 55.3114282,94.6842448 C55.5386587,95.5527387 55.8163808,96.3142328 56.1446027,96.96875 C56.4728246,97.6232672 56.9335908,98.139321 57.526915,98.5169271 C58.1202392,98.8945331 58.8208563,99.0833333 59.6287872,99.0833333 C60.6387007,99.0833333 61.471867,98.8882398 62.1283108,98.4980469 C62.7847546,98.107854 63.2707682,97.5225733 63.5863662,96.7421875 C63.9019642,95.9618017 64.1228795,95.1814275 64.2491187,94.4010417 C64.3753579,93.6206558 64.4511003,92.6388948 64.4763481,91.4557292 L64.4763481,89.4166667 L74.0957269,89.4166667 L74.0957269,91.3424479 C73.8684964,96.503064 72.5934996,100.404935 70.2706984,103.048177 C67.9478971,105.691419 64.3753814,107.013021 59.553044,107.013021 C57.2049949,107.013021 55.1662625,106.610247 53.4367854,105.804688 Z M54.7812262,77.3333333 L64.400605,77.3333333 L64.400605,74.4257813 C64.3753572,73.1419207 64.2996148,72.0217062 64.1733756,71.0651042 C64.0471364,70.1085022 63.8262211,69.1519145 63.5106231,68.1953125 C63.1950251,67.2387105 62.7090115,66.5086831 62.0525676,66.0052083 C61.3961238,65.5017336 60.5882051,65.25 59.6287872,65.25 C58.6441214,65.25 57.8172671,65.5143203 57.1481993,66.0429688 C56.4791316,66.5716172 55.9868061,67.3331113 55.6712081,68.327474 C55.3556101,69.3218366 55.1346948,70.2973042 55.0084556,71.2539063 C54.8822164,72.2105083 54.806474,73.3558961 54.7812262,74.6901042 L54.7812262,77.3333333 Z M81.2155821,106.333333 L81.2155821,38.6666667 L90.9107041,38.6666667 L90.9107041,106.333333 L81.2155821,106.333333 Z M99.5832936,106.333333 L99.5832936,38.6666667 L109.278416,38.6666667 L109.278416,106.333333 L99.5832936,106.333333 Z M118.329721,106.333333 L118.329721,38.6666667 L144.991306,38.6666667 L144.991306,45.9166667 L128.024843,45.9166667 L128.024843,67.6666667 L140.143745,67.6666667 L140.143745,74.9166667 L128.024843,74.9166667 L128.024843,106.333333 L118.329721,106.333333 Z M162.639458,107.013021 C157.438403,107.013021 153.714402,105.502619 151.467345,102.481771 C149.220287,99.4609224 148.096775,95.1059312 148.096775,89.4166667 L148.096775,74.9166667 C148.096775,69.2274021 149.220287,64.8724109 151.467345,61.8515625 C153.714402,58.8307141 157.438403,57.3203125 162.639458,57.3203125 C167.840513,57.3203125 171.564513,58.8307141 173.811571,61.8515625 C176.058629,64.8724109 177.182141,69.2274021 177.182141,74.9166667 L177.182141,89.4166667 C177.182141,95.1059312 176.058629,99.4609224 173.811571,102.481771 C171.564513,105.502619 167.840513,107.013021 162.639458,107.013021 L162.639458,107.013021 Z M162.639458,99.0833333 C163.32115,99.0833333 163.920777,98.9826399 164.438357,98.78125 C164.955938,98.5798601 165.385145,98.3344199 165.725991,98.0449219 C166.066837,97.7554239 166.350871,97.3274768 166.578101,96.7610677 C166.805332,96.1946586 166.982064,95.6974848 167.108303,95.2695313 C167.234542,94.8415777 167.322908,94.2248304 167.373404,93.4192708 C167.4239,92.6137113 167.455459,91.9780839 167.468083,91.5123698 C167.480707,91.0466557 167.487019,90.3480949 167.487019,89.4166667 L167.487019,74.9166667 C167.487019,73.9852384 167.480707,73.2866777 167.468083,72.8209635 C167.455459,72.3552494 167.4239,71.7196221 167.373404,70.9140625 C167.322908,70.1085029 167.234542,69.4917556 167.108303,69.0638021 C166.982064,68.6358486 166.805332,68.1386747 166.578101,67.5722656 C166.350871,67.0058565 166.066837,66.5779094 165.725991,66.2884115 C165.385145,65.9989135 164.955938,65.7534732 164.438357,65.5520833 C163.920777,65.3506934 163.32115,65.25 162.639458,65.25 C161.957766,65.25 161.358139,65.3506934 160.840558,65.5520833 C160.322978,65.7534732 159.893771,65.9989135 159.552925,66.2884115 C159.212079,66.5779094 158.928045,67.0058565 158.700815,67.5722656 C158.473584,68.1386747 158.296852,68.6358486 158.170613,69.0638021 C158.044373,69.4917556 157.956007,70.1085029 157.905512,70.9140625 C157.855016,71.7196221 157.823457,72.3552494 157.810833,72.8209635 C157.798209,73.2866777 157.791897,73.9852384 157.791897,74.9166667 L157.791897,89.4166667 C157.791897,90.3480949 157.798209,91.0466557 157.810833,91.5123698 C157.823457,91.9780839 157.855016,92.6137113 157.905512,93.4192708 C157.956007,94.2248304 158.044373,94.8415777 158.170613,95.2695313 C158.296852,95.6974848 158.473584,96.1946586 158.700815,96.7610677 C158.928045,97.3274768 159.212079,97.7554239 159.552925,98.0449219 C159.893771,98.3344199 160.322978,98.5798601 160.840558,98.78125 C161.358139,98.9826399 161.957766,99.0833333 162.639458,99.0833333 L162.639458,99.0833333 Z M185.135171,106.333333 L185.135171,58 L194.830292,58 L194.830292,64.4570313 C195.814958,62.5438272 197.247752,60.8760922 199.128716,59.453776 C201.00968,58.0314599 203.098907,57.3203125 205.396461,57.3203125 C205.472204,57.3203125 205.989777,57.3706592 206.949195,57.4713542 L206.949195,68.1575521 C205.156598,67.4526874 203.364029,67.1002604 201.571432,67.1002604 C199.551605,67.1002604 197.923144,67.704421 196.685999,68.9127604 C195.448855,70.1210998 194.830292,71.7196081 194.830292,73.7083333 L194.830292,106.333333 L185.135171,106.333333 Z M211.380169,106.333333 L211.380169,58 L221.075291,58 L221.075291,63.4752604 C224.534245,59.3719413 228.561215,57.3203125 233.156321,57.3203125 C235.479123,57.3203125 237.183326,57.830073 238.268983,58.8496094 C239.354641,59.8691457 240.086817,61.4865341 240.465534,63.7018229 C242.056148,61.6124027 243.772976,60.0264811 245.616068,58.9440104 C247.45916,57.8615397 249.781927,57.3203125 252.584437,57.3203125 C253.392368,57.3203125 254.118232,57.4021259 254.762052,57.5657552 C255.405872,57.7293845 255.967628,57.924478 256.447337,58.1510417 C256.927046,58.3776053 257.349941,58.723739 257.716035,59.1894531 C258.082128,59.6551673 258.385098,60.0831144 258.624952,60.4733073 C258.864807,60.8635002 259.066787,61.4236075 259.230897,62.1536458 C259.395008,62.8836842 259.514934,63.4878448 259.590677,63.9661458 C259.666421,64.4444468 259.72954,65.1493009 259.780035,66.0807292 C259.830531,67.0121574 259.855778,67.7421849 259.855778,68.2708333 L259.855778,70.6497396 L259.855778,71.1783854 L259.855778,106.333333 L250.160656,106.333333 L250.160656,71.0651042 L250.160656,70.4609375 C250.160656,69.6302042 250.148033,68.9882835 250.122785,68.5351563 C250.097537,68.082029 250.015483,67.5596818 249.87662,66.968099 C249.737757,66.3765161 249.491594,65.9422757 249.138124,65.6653646 C248.784654,65.3884535 248.317576,65.25 247.736876,65.25 C246.75221,65.25 245.767559,65.4450935 244.782893,65.8352865 C243.798228,66.2254794 243.034492,66.6030798 242.491663,66.968099 C241.948835,67.3331181 241.273465,67.8428787 240.465534,68.4973958 L240.465534,106.333333 L230.770413,106.333333 L230.770413,71.2539063 L230.770413,70.5742188 L230.770413,68.9882813 C230.770413,68.6358489 230.726229,68.1764351 230.637862,67.610026 C230.549495,67.043617 230.429569,66.6219632 230.278082,66.3450521 C230.126595,66.068141 229.886744,65.8164074 229.558522,65.5898438 C229.2303,65.3632801 228.826341,65.25 228.346632,65.25 C225.973335,65.25 223.549579,66.2695211 221.075291,68.3085938 L221.075291,106.333333 L211.380169,106.333333 Z" id="TellForm"></path>
            </g>
        </g>
    </g>
</svg>