<svg xmlns="http://www.w3.org/2000/svg" xmlns:xlink="http://www.w3.org/1999/xlink" viewBox="0 0 204.31 98.78"><defs><style>.cls-1{fill:url(#linear-gradient);}.cls-2{fill:url(#linear-gradient-2);}.cls-3{fill:url(#linear-gradient-3);}.cls-4{fill:url(#linear-gradient-4);}.cls-5{fill:url(#linear-gradient-5);}</style><linearGradient id="linear-gradient" x1="-140.42" y1="-81.5" x2="4.86" y2="-81.5" gradientTransform="translate(92.46 202.95) rotate(45)" gradientUnits="userSpaceOnUse"><stop offset="0" stop-color="#283c86"/><stop offset="1" stop-color="#45a247"/></linearGradient><linearGradient id="linear-gradient-2" x1="-110.97" y1="-80.52" x2="-60.88" y2="-80.52" xlink:href="#linear-gradient"/><linearGradient id="linear-gradient-3" x1="-110.97" y1="-48.13" x2="-93.3" y2="-48.13" xlink:href="#linear-gradient"/><linearGradient id="linear-gradient-4" x1="93.96" y1="45.22" x2="134.33" y2="81.99" gradientTransform="matrix(1, 0, 0, 1, 0, 0)" xlink:href="#linear-gradient"/><linearGradient id="linear-gradient-5" x1="112.42" y1="80.45" x2="157.53" y2="80.45" gradientTransform="matrix(1, 0, 0, 1, 0, 0)" xlink:href="#linear-gradient"/></defs><title>Asset 1</title><g id="Layer_2" data-name="Layer 2"><g id="Layer_1-2" data-name="Layer 1"><path class="cls-1" d="M203.91,96.41,111.26,3.77a12.88,12.88,0,0,0-18.21,0L.41,96.41a1.38,1.38,0,0,0,1,2.36H21.14a5.48,5.48,0,0,1,1.61-3.89L98.27,19.37a5.49,5.49,0,0,1,7.77,0l75.52,75.52a5.48,5.48,0,0,1,1.61,3.89h19.76A1.38,1.38,0,0,0,203.91,96.41Z"/><path class="cls-2" d="M89.06,98.17,66.13,75.25a2.06,2.06,0,0,1,0-2.91l9.58-9.58a2.06,2.06,0,0,1,2.91,0l32.51,32.51a2.06,2.06,0,0,1-1.46,3.52H90.52A2.06,2.06,0,0,1,89.06,98.17Z"/><path class="cls-3" d="M43.24,98.17h0a2.08,2.08,0,0,1,0-2.94l9.55-9.55a2.08,2.08,0,0,1,2.94,0l9.55,9.55a2.08,2.08,0,0,1-1.47,3.55H44.72A2.08,2.08,0,0,1,43.24,98.17Z"/><path class="cls-4" d="M111.17,52.44l-9.43,9.43a2.17,2.17,0,0,1-3.06,0L89,52.26a2.06,2.06,0,0,1,0-2.93l9.56-9.56a2.07,2.07,0,0,1,2.93,0l9.62,9.62A2.16,2.16,0,0,1,111.17,52.44Z"/><path class="cls-5" d="M155.46,98.68H137.22a4.23,4.23,0,0,1-3-1.24L113.72,76.93a4.41,4.41,0,0,1,0-6.24l7.84-7.84a2.16,2.16,0,0,1,3.06,0l32.31,32.31A2.07,2.07,0,0,1,155.46,98.68Z"/></g></g></svg>