<svg xmlns="http://www.w3.org/2000/svg" viewBox="0 0 475.2 324.15"><defs><style>.cls-1{fill:#fff;}</style></defs><title>Asset 13</title><g id="Layer_2" data-name="Layer 2"><g id="Layer_1-2" data-name="Layer 1"><path class="cls-1" d="M468.16,221.08,255.72,8.65a29.53,29.53,0,0,0-41.77,0L1.52,221.08a3.17,3.17,0,0,0,2.24,5.42h45.3a12.56,12.56,0,0,1,3.69-8.91L225.93,44.42a12.6,12.6,0,0,1,17.82,0L416.92,217.59a12.56,12.56,0,0,1,3.69,8.91h45.3A3.17,3.17,0,0,0,468.16,221.08Z"/><path class="cls-1" d="M204.81,225.12l-52.57-52.57a4.72,4.72,0,0,1,0-6.68l22-22a4.72,4.72,0,0,1,6.68,0l74.54,74.54a4.72,4.72,0,0,1-3.34,8.06H208.15A4.72,4.72,0,0,1,204.81,225.12Z"/><path class="cls-1" d="M99.75,225.1h0a4.77,4.77,0,0,1,0-6.75l21.9-21.9a4.77,4.77,0,0,1,6.75,0l21.9,21.9a4.77,4.77,0,0,1-3.38,8.15H103.13A4.77,4.77,0,0,1,99.75,225.1Z"/><path class="cls-1" d="M255.5,120.26l-21.63,21.63a5,5,0,0,1-7,0l-22.06-22.06a4.73,4.73,0,0,1,0-6.71L226.7,91.18a4.76,4.76,0,0,1,6.72,0l22.07,22.07A5,5,0,0,1,255.5,120.26Z"/><path class="cls-1" d="M357.06,226.29H315.25a9.69,9.69,0,0,1-6.86-2.84l-47-47.06a10.12,10.12,0,0,1,0-14.31l18-18a5,5,0,0,1,7,0l74.08,74.08A4.75,4.75,0,0,1,357.06,226.29Z"/><path class="cls-1" d="M34.56,275.43H15.68v10.08h17.2v13.28H15.68v23.68H0V262.15H34.56Z"/><path class="cls-1" d="M62.32,292.31a31.08,31.08,0,0,1,19.88-29.4,38.34,38.34,0,0,1,26.92,0,31.8,31.8,0,0,1,10.6,6.76,31,31,0,0,1,6.92,10.12,32.84,32.84,0,0,1,0,25A31,31,0,0,1,119.72,315a31.8,31.8,0,0,1-10.6,6.76,38.35,38.35,0,0,1-26.92,0,31.2,31.2,0,0,1-19.88-29.4Zm16.4,0A16.06,16.06,0,0,0,80.08,299a16.61,16.61,0,0,0,9.08,8.76,17.76,17.76,0,0,0,13,0,17.09,17.09,0,0,0,5.44-3.48,16.48,16.48,0,0,0,3.72-5.28,16.89,16.89,0,0,0,0-13.28,16.52,16.52,0,0,0-3.72-5.28,17.59,17.59,0,0,0-18.48-3.48,16.6,16.6,0,0,0-9.08,8.76A16.07,16.07,0,0,0,78.72,292.31Z"/><path class="cls-1" d="M210.32,322.47H190.8l-15-23.2v23.2H160.16V262.15h24.4a24,24,0,0,1,8.8,1.48,16.57,16.57,0,0,1,9.88,10,20.64,20.64,0,0,1,1.24,7.2q0,6.88-3.32,11.16t-9.8,5.8Zm-34.48-33.36h3q4.64,0,7.12-1.92a7.38,7.38,0,0,0,0-11q-2.48-1.92-7.12-1.92h-3Z"/><path class="cls-1" d="M235.28,322.47l10.24-60.32H261l12.08,32.16,12-32.16h15.52l10.24,60.32h-15.6l-5.2-34.72-14.24,34.72H269.6l-13.52-34.72-5.2,34.72Z"/><path class="cls-1" d="M375,277.59a19.4,19.4,0,0,0-5.12-3.08,13.62,13.62,0,0,0-5-1,8,8,0,0,0-5,1.44,4.49,4.49,0,0,0-1.92,3.76,3.73,3.73,0,0,0,1,2.64,8.33,8.33,0,0,0,2.52,1.8,21.32,21.32,0,0,0,3.52,1.32q2,.56,3.88,1.2,7.68,2.56,11.24,6.84t3.56,11.16a21.72,21.72,0,0,1-1.56,8.4,17.51,17.51,0,0,1-4.56,6.44,21,21,0,0,1-7.36,4.16,30.66,30.66,0,0,1-9.88,1.48,36.33,36.33,0,0,1-21.2-6.8l6.72-12.64a27.21,27.21,0,0,0,7,4.64,16.72,16.72,0,0,0,6.8,1.52q3.84,0,5.72-1.76a5.35,5.35,0,0,0,1.88-4,5.41,5.41,0,0,0-.48-2.36,5.11,5.11,0,0,0-1.6-1.84,12.82,12.82,0,0,0-2.92-1.56q-1.8-.72-4.36-1.6-3-1-6-2.12a18.7,18.7,0,0,1-5.2-3.08,14.28,14.28,0,0,1-3.68-4.84,17.1,17.1,0,0,1-1.4-7.4,21.37,21.37,0,0,1,1.48-8.12,18,18,0,0,1,4.16-6.24,18.53,18.53,0,0,1,6.56-4,24.79,24.79,0,0,1,8.68-1.44,38,38,0,0,1,9.36,1.24,41.35,41.35,0,0,1,9.36,3.64Z"/><path class="cls-1" d="M444.08,288.71H475.2a86.75,86.75,0,0,1-.4,8.72,31,31,0,0,1-1.6,7.28,29,29,0,0,1-4.56,8.36,26.65,26.65,0,0,1-6.76,6.08,31.74,31.74,0,0,1-8.52,3.72,36.58,36.58,0,0,1-9.76,1.28,34.29,34.29,0,0,1-12.84-2.32,29,29,0,0,1-10-6.52,29.5,29.5,0,0,1-6.48-10.08,35.1,35.1,0,0,1-2.32-13,35.46,35.46,0,0,1,2.28-12.92,28.36,28.36,0,0,1,6.48-10,29.45,29.45,0,0,1,10.12-6.48,35.89,35.89,0,0,1,13.2-2.32,32.73,32.73,0,0,1,16.56,4.08,28.25,28.25,0,0,1,11.28,12.64L457,283.35a15.15,15.15,0,0,0-5.4-7.12,13.56,13.56,0,0,0-7.56-2.16,15.18,15.18,0,0,0-6.4,1.32,13.87,13.87,0,0,0-4.92,3.76,18.05,18.05,0,0,0-3.2,5.88,23.94,23.94,0,0,0-1.16,7.68,24.27,24.27,0,0,0,1,7.12,16,16,0,0,0,3,5.68,13.51,13.51,0,0,0,5,3.72,16.75,16.75,0,0,0,6.88,1.32,19,19,0,0,0,4.48-.52,11.81,11.81,0,0,0,3.88-1.68,9.55,9.55,0,0,0,2.84-3,12,12,0,0,0,1.52-4.48H444.08Z"/></g></g></svg>