<svg xmlns="http://www.w3.org/2000/svg" xmlns:xlink="http://www.w3.org/1999/xlink" viewBox="0 0 475.7 403.65"><defs><style>.cls-1{fill:url(#linear-gradient);}.cls-2{fill:url(#linear-gradient-2);}.cls-3{fill:url(#linear-gradient-3);}.cls-4{fill:url(#linear-gradient-4);}.cls-5{fill:url(#linear-gradient-5);}.cls-6{fill:#0f2359;}.cls-7{opacity:0.8;}</style><linearGradient id="linear-gradient" x1="54.74" y1="266.36" x2="387.88" y2="266.36" gradientTransform="translate(269.83 -121.5) rotate(45)" gradientUnits="userSpaceOnUse"><stop offset="0" stop-color="#283c86"/><stop offset="1" stop-color="#45a247"/></linearGradient><linearGradient id="linear-gradient-2" x1="122.26" y1="268.6" x2="237.14" y2="268.6" xlink:href="#linear-gradient"/><linearGradient id="linear-gradient-3" x1="122.26" y1="342.88" x2="162.79" y2="342.88" xlink:href="#linear-gradient"/><linearGradient id="linear-gradient-4" x1="219.17" y1="103.69" x2="311.74" y2="188.01" gradientTransform="matrix(1, 0, 0, 1, 0, 0)" xlink:href="#linear-gradient"/><linearGradient id="linear-gradient-5" x1="261.52" y1="184.47" x2="364.95" y2="184.47" gradientTransform="matrix(1, 0, 0, 1, 0, 0)" xlink:href="#linear-gradient"/></defs><title>Asset 5</title><g id="Layer_2" data-name="Layer 2"><g id="Layer_1-2" data-name="Layer 1"><path class="cls-1" d="M471.29,221.08,258.86,8.65a29.53,29.53,0,0,0-41.77,0L4.66,221.08A3.17,3.17,0,0,0,6.9,226.5h45.3a12.56,12.56,0,0,1,3.69-8.91L229.07,44.42a12.6,12.6,0,0,1,17.82,0L420.05,217.59a12.56,12.56,0,0,1,3.69,8.91H469A3.17,3.17,0,0,0,471.29,221.08Z"/><path class="cls-2" d="M207.94,225.12l-52.57-52.57a4.72,4.72,0,0,1,0-6.68l22-22a4.72,4.72,0,0,1,6.68,0l74.54,74.54a4.72,4.72,0,0,1-3.34,8.06H211.28A4.72,4.72,0,0,1,207.94,225.12Z"/><path class="cls-3" d="M102.89,225.1h0a4.77,4.77,0,0,1,0-6.75l21.9-21.9a4.77,4.77,0,0,1,6.75,0l21.9,21.9a4.77,4.77,0,0,1-3.38,8.15H106.26A4.77,4.77,0,0,1,102.89,225.1Z"/><path class="cls-4" d="M258.63,120.26,237,141.89a5,5,0,0,1-7,0l-22.06-22.06a4.73,4.73,0,0,1,0-6.71l21.92-21.93a4.76,4.76,0,0,1,6.72,0l22.07,22.07A5,5,0,0,1,258.63,120.26Z"/><path class="cls-5" d="M360.2,226.29H318.38a9.69,9.69,0,0,1-6.86-2.84l-47-47.06a10.12,10.12,0,0,1,0-14.31l18-18a5,5,0,0,1,7,0l74.08,74.08A4.75,4.75,0,0,1,360.2,226.29Z"/><path class="cls-6" d="M45.52,290.43H23v12H43.52v15.82H23v28.21H4.35V274.6H45.52Z"/><path class="cls-6" d="M77.07,310.54a37,37,0,0,1,23.69-35,45.68,45.68,0,0,1,32.07,0,37.88,37.88,0,0,1,12.63,8.05,36.87,36.87,0,0,1,8.25,12.06,39.13,39.13,0,0,1,0,29.83,36.85,36.85,0,0,1-8.25,12.06,37.86,37.86,0,0,1-12.63,8.05,45.68,45.68,0,0,1-32.07,0,37.17,37.17,0,0,1-23.69-35Zm19.54,0a19.13,19.13,0,0,0,1.62,7.91,19.79,19.79,0,0,0,10.82,10.44,20.79,20.79,0,0,0,22-4.15,19.64,19.64,0,0,0,4.43-6.29,20.12,20.12,0,0,0,0-15.82,19.68,19.68,0,0,0-4.43-6.29,21,21,0,0,0-22-4.15,19.79,19.79,0,0,0-10.82,10.44A19.13,19.13,0,0,0,96.61,310.54Z"/><path class="cls-6" d="M251.88,346.47H228.62L210.8,318.83v27.64H192.12V274.6h29.07a28.55,28.55,0,0,1,10.48,1.76,19.74,19.74,0,0,1,11.77,11.87,24.59,24.59,0,0,1,1.48,8.58q0,8.2-4,13.3T229.29,317ZM210.8,306.73h3.53q5.53,0,8.48-2.29a8.8,8.8,0,0,0,0-13.15q-3-2.29-8.48-2.29H210.8Z"/><path class="cls-6" d="M280.09,346.47l12.2-71.87h18.49l14.39,38.32,14.3-38.32H358l12.2,71.87H351.58l-6.2-41.37-17,41.37H321l-16.11-41.37-6.2,41.37Z"/><path class="cls-6" d="M449.66,334H423l-4.29,12.49H398.76l27.36-71.87h20.4l27.36,71.87H454Zm-5-14.2-8.39-23.92-8.39,23.92Z"/><g class="cls-7"><path class="cls-6" d="M15.89,371.28v2.84H3.51v9H14.09V386H3.51v11.09H0V371.28Z"/><path class="cls-6" d="M26,378.55a9.38,9.38,0,0,1,3.61.67,7.61,7.61,0,0,1,2.74,1.89,8.37,8.37,0,0,1,1.73,3,12.81,12.81,0,0,1,0,7.77,8.38,8.38,0,0,1-1.73,3,7.5,7.5,0,0,1-2.74,1.88,9.47,9.47,0,0,1-3.61.66,9.47,9.47,0,0,1-3.61-.66,7.59,7.59,0,0,1-2.75-1.88,8.4,8.4,0,0,1-1.75-3,12.62,12.62,0,0,1,0-7.77,8.4,8.4,0,0,1,1.75-3,7.7,7.7,0,0,1,2.75-1.89A9.38,9.38,0,0,1,26,378.55Zm0,16.27A4.68,4.68,0,0,0,30,393a10.29,10.29,0,0,0,0-10.12,4.67,4.67,0,0,0-4-1.82,5.6,5.6,0,0,0-2.38.47,4.45,4.45,0,0,0-1.68,1.35,6,6,0,0,0-1,2.17,12.81,12.81,0,0,0,0,5.8,5.9,5.9,0,0,0,1,2.15,4.48,4.48,0,0,0,1.68,1.34A5.6,5.6,0,0,0,26,394.83Z"/><path class="cls-6" d="M38.63,397.08V378.84h1.84a1,1,0,0,1,.72.2,1.22,1.22,0,0,1,.27.68l.22,2.84a8.35,8.35,0,0,1,2.31-3,5.45,5.45,0,0,1,4.6-.9,4.78,4.78,0,0,1,1.13.48l-.41,2.39a.54.54,0,0,1-.56.45,2.78,2.78,0,0,1-.77-.17,4.91,4.91,0,0,0-1.46-.17,4.13,4.13,0,0,0-2.8,1,7.29,7.29,0,0,0-1.88,2.83v11.61Z"/><path class="cls-6" d="M53.14,397.08V378.84H55a.82.82,0,0,1,.86.67l.23,1.87a9.35,9.35,0,0,1,2.26-2,5.32,5.32,0,0,1,2.91-.79,4.32,4.32,0,0,1,3,1A5.77,5.77,0,0,1,66,382.35a5.7,5.7,0,0,1,1-1.71,5.8,5.8,0,0,1,1.4-1.19,5.91,5.91,0,0,1,1.65-.68,7.33,7.33,0,0,1,1.77-.22,6.75,6.75,0,0,1,2.57.46,5.09,5.09,0,0,1,1.91,1.34,6,6,0,0,1,1.2,2.17,9.6,9.6,0,0,1,.41,2.94v11.61h-3.2V385.47a4.92,4.92,0,0,0-.94-3.25A3.36,3.36,0,0,0,71,381.11a4.07,4.07,0,0,0-1.5.28,3.62,3.62,0,0,0-1.25.82,3.85,3.85,0,0,0-.85,1.36,5.27,5.27,0,0,0-.31,1.9v11.61h-3.2V385.47a5.11,5.11,0,0,0-.88-3.28,3.13,3.13,0,0,0-2.57-1.08,4.07,4.07,0,0,0-2.21.64,7.21,7.21,0,0,0-1.86,1.74v13.59Z"/><path class="cls-6" d="M89.64,397.08V378.84h1.91a.82.82,0,0,1,.86.67l.23,1.87a9.35,9.35,0,0,1,2.26-2,5.32,5.32,0,0,1,2.91-.79,4.32,4.32,0,0,1,3,1,5.77,5.77,0,0,1,1.65,2.77,5.7,5.7,0,0,1,1-1.71,5.8,5.8,0,0,1,1.4-1.19,5.91,5.91,0,0,1,1.65-.68,7.33,7.33,0,0,1,1.77-.22,6.75,6.75,0,0,1,2.57.46,5.09,5.09,0,0,1,1.91,1.34,6,6,0,0,1,1.2,2.17,9.6,9.6,0,0,1,.41,2.94v11.61h-3.2V385.47a4.92,4.92,0,0,0-.94-3.25,3.36,3.36,0,0,0-2.72-1.11,4.07,4.07,0,0,0-1.5.28,3.62,3.62,0,0,0-1.25.82,3.85,3.85,0,0,0-.85,1.36,5.27,5.27,0,0,0-.31,1.9v11.61h-3.2V385.47a5.11,5.11,0,0,0-.88-3.28,3.13,3.13,0,0,0-2.57-1.08,4.07,4.07,0,0,0-2.21.64,7.21,7.21,0,0,0-1.86,1.74v13.59Z"/><path class="cls-6" d="M132.59,397.08h-1.42a1.7,1.7,0,0,1-.76-.14.8.8,0,0,1-.38-.61l-.36-1.69q-.72.65-1.4,1.16a8.08,8.08,0,0,1-1.44.86,7.5,7.5,0,0,1-1.61.53,9.3,9.3,0,0,1-1.9.18,6.47,6.47,0,0,1-2-.3,4.52,4.52,0,0,1-1.61-.89,4.26,4.26,0,0,1-1.09-1.51,5.29,5.29,0,0,1-.41-2.16,4,4,0,0,1,.59-2.09,5.22,5.22,0,0,1,1.92-1.78,12.46,12.46,0,0,1,3.46-1.27,23.58,23.58,0,0,1,5.24-.5v-1.43a5,5,0,0,0-.91-3.23,3.3,3.3,0,0,0-2.69-1.1,5.7,5.7,0,0,0-2,.3,7.47,7.47,0,0,0-1.39.67q-.59.37-1,.67a1.45,1.45,0,0,1-.84.3,1,1,0,0,1-.57-.17,1.31,1.31,0,0,1-.39-.42l-.58-1a10.42,10.42,0,0,1,3.26-2.18,10.07,10.07,0,0,1,3.87-.72,6.9,6.9,0,0,1,2.72.5,5.58,5.58,0,0,1,2,1.4,6,6,0,0,1,1.22,2.18,9.07,9.07,0,0,1,.41,2.81Zm-8.32-2a6.53,6.53,0,0,0,1.55-.17,6.12,6.12,0,0,0,1.32-.49,7.05,7.05,0,0,0,1.19-.76,10.24,10.24,0,0,0,1.11-1V388.9a21.55,21.55,0,0,0-3.76.28,10.52,10.52,0,0,0-2.52.73,3.52,3.52,0,0,0-1.41,1.07,2.31,2.31,0,0,0-.44,1.38,3.05,3.05,0,0,0,.23,1.25,2.37,2.37,0,0,0,.63.86,2.46,2.46,0,0,0,.94.49A4.25,4.25,0,0,0,124.27,395.11Z"/><path class="cls-6" d="M137.45,397.08V378.84h1.91a.82.82,0,0,1,.86.67l.25,2a10.24,10.24,0,0,1,2.66-2.12,6.9,6.9,0,0,1,3.39-.81,6.6,6.6,0,0,1,2.64.5,5.11,5.11,0,0,1,1.91,1.4,6.2,6.2,0,0,1,1.16,2.19,9.51,9.51,0,0,1,.4,2.83v11.61h-3.2V385.47a4.91,4.91,0,0,0-.95-3.21,3.53,3.53,0,0,0-2.89-1.14,5.38,5.38,0,0,0-2.66.68,8.74,8.74,0,0,0-2.28,1.85v13.43Z"/><path class="cls-6" d="M170.86,397.08h-1.42a1.7,1.7,0,0,1-.76-.14.8.8,0,0,1-.38-.61l-.36-1.69q-.72.65-1.4,1.16a8.08,8.08,0,0,1-1.44.86,7.5,7.5,0,0,1-1.61.53,9.3,9.3,0,0,1-1.9.18,6.47,6.47,0,0,1-2-.3,4.52,4.52,0,0,1-1.61-.89,4.26,4.26,0,0,1-1.09-1.51,5.29,5.29,0,0,1-.41-2.16,4,4,0,0,1,.59-2.09,5.22,5.22,0,0,1,1.92-1.78,12.46,12.46,0,0,1,3.46-1.27,23.58,23.58,0,0,1,5.24-.5v-1.43a5,5,0,0,0-.91-3.23,3.3,3.3,0,0,0-2.69-1.1,5.7,5.7,0,0,0-2,.3,7.47,7.47,0,0,0-1.39.67q-.59.37-1,.67a1.45,1.45,0,0,1-.84.3,1,1,0,0,1-.57-.17,1.31,1.31,0,0,1-.39-.42l-.58-1a10.42,10.42,0,0,1,3.26-2.18,10.07,10.07,0,0,1,3.87-.72,6.9,6.9,0,0,1,2.72.5,5.58,5.58,0,0,1,2,1.4,6,6,0,0,1,1.22,2.18,9.07,9.07,0,0,1,.41,2.81Zm-8.32-2a6.53,6.53,0,0,0,1.55-.17,6.12,6.12,0,0,0,1.32-.49,7.05,7.05,0,0,0,1.19-.76,10.24,10.24,0,0,0,1.11-1V388.9a21.55,21.55,0,0,0-3.76.28,10.52,10.52,0,0,0-2.52.73A3.52,3.52,0,0,0,160,391a2.31,2.31,0,0,0-.44,1.38,3.05,3.05,0,0,0,.23,1.25,2.37,2.37,0,0,0,.63.86,2.46,2.46,0,0,0,.94.49A4.25,4.25,0,0,0,162.54,395.11Z"/><path class="cls-6" d="M181.85,378.54a9.07,9.07,0,0,1,2.22.26,7,7,0,0,1,1.88.77h4.95v1.19q0,.59-.76.76l-2.07.29a5.92,5.92,0,0,1,.1,5,5.49,5.49,0,0,1-1.42,1.86,6.38,6.38,0,0,1-2.16,1.19,8.69,8.69,0,0,1-2.75.41,9.22,9.22,0,0,1-2.41-.31,3.07,3.07,0,0,0-.87.8,1.47,1.47,0,0,0-.3.84,1.14,1.14,0,0,0,.52,1,3.62,3.62,0,0,0,1.39.49,11.6,11.6,0,0,0,2,.15h2.24a12.44,12.44,0,0,1,2.24.2,6.81,6.81,0,0,1,2,.66,3.66,3.66,0,0,1,1.39,1.26,3.75,3.75,0,0,1,.52,2.08,4.87,4.87,0,0,1-.58,2.3,6.2,6.2,0,0,1-1.68,2,8.65,8.65,0,0,1-2.68,1.38,11.49,11.49,0,0,1-3.58.52,13.83,13.83,0,0,1-3.5-.4,8.2,8.2,0,0,1-2.49-1.06,4.63,4.63,0,0,1-1.48-1.54,3.66,3.66,0,0,1-.5-1.83,3.31,3.31,0,0,1,.85-2.3,5.87,5.87,0,0,1,2.35-1.5,3.22,3.22,0,0,1-1.23-1,2.59,2.59,0,0,1-.46-1.61,2.52,2.52,0,0,1,.14-.82,3.19,3.19,0,0,1,.44-.84,4.7,4.7,0,0,1,.73-.79,4.78,4.78,0,0,1,1-.67,5.67,5.67,0,0,1-2.11-2,5.49,5.49,0,0,1-.77-2.92,5.61,5.61,0,0,1,.51-2.42,5.36,5.36,0,0,1,1.43-1.85,6.56,6.56,0,0,1,2.19-1.18A8.91,8.91,0,0,1,181.85,378.54ZM187.54,398a1.62,1.62,0,0,0-.38-1.12,2.44,2.44,0,0,0-1-.65,7.35,7.35,0,0,0-1.49-.34,13.85,13.85,0,0,0-1.78-.11H181a6.94,6.94,0,0,1-1.85-.24,5.25,5.25,0,0,0-1.67,1.19,2.4,2.4,0,0,0-.64,1.68,2.21,2.21,0,0,0,.31,1.15,2.7,2.7,0,0,0,1,.92,5.65,5.65,0,0,0,1.63.61,10.48,10.48,0,0,0,2.31.23,10.28,10.28,0,0,0,2.32-.24,5.78,5.78,0,0,0,1.74-.68,3.31,3.31,0,0,0,1.09-1A2.48,2.48,0,0,0,187.54,398Zm-5.69-9.84a5.05,5.05,0,0,0,1.72-.27,3.49,3.49,0,0,0,1.25-.76,3.11,3.11,0,0,0,.76-1.16,4.23,4.23,0,0,0,.25-1.49,3.55,3.55,0,0,0-1-2.66,4.89,4.89,0,0,0-5.9,0,3.55,3.55,0,0,0-1,2.66,4.09,4.09,0,0,0,.26,1.49,3.2,3.2,0,0,0,.77,1.16,3.51,3.51,0,0,0,1.24.76A4.91,4.91,0,0,0,181.85,388.17Z"/><path class="cls-6" d="M201.33,378.55a8.14,8.14,0,0,1,3,.55,6.79,6.79,0,0,1,2.39,1.58,7.22,7.22,0,0,1,1.57,2.56,9.88,9.88,0,0,1,.57,3.46,2.09,2.09,0,0,1-.16,1,.67.67,0,0,1-.61.25H196a10.08,10.08,0,0,0,.47,3,6.16,6.16,0,0,0,1.19,2.13,4.75,4.75,0,0,0,1.8,1.28,6.18,6.18,0,0,0,2.34.42,6.85,6.85,0,0,0,2.08-.28,9.76,9.76,0,0,0,1.5-.6,11.36,11.36,0,0,0,1.05-.6,1.4,1.4,0,0,1,.73-.28.71.71,0,0,1,.61.31l.9,1.17a6.11,6.11,0,0,1-1.42,1.25,8.92,8.92,0,0,1-1.77.87,11.33,11.33,0,0,1-2,.51,11.9,11.9,0,0,1-2,.17,9.28,9.28,0,0,1-3.48-.64,7.64,7.64,0,0,1-2.75-1.87,8.59,8.59,0,0,1-1.81-3.05,12.41,12.41,0,0,1-.65-4.18,10.62,10.62,0,0,1,.58-3.56,8.38,8.38,0,0,1,1.68-2.87,7.74,7.74,0,0,1,2.68-1.91A8.8,8.8,0,0,1,201.33,378.55Zm.07,2.36a4.92,4.92,0,0,0-3.65,1.34,6.31,6.31,0,0,0-1.66,3.72H206a6.5,6.5,0,0,0-.31-2,4.57,4.57,0,0,0-.9-1.6,4,4,0,0,0-1.45-1A4.89,4.89,0,0,0,201.4,380.91Z"/><path class="cls-6" d="M213,397.08V378.84h1.84a1,1,0,0,1,.72.2,1.22,1.22,0,0,1,.27.68l.22,2.84a8.35,8.35,0,0,1,2.31-3,5.45,5.45,0,0,1,4.6-.9,4.78,4.78,0,0,1,1.13.48l-.41,2.39a.54.54,0,0,1-.56.45,2.78,2.78,0,0,1-.77-.17,4.91,4.91,0,0,0-1.46-.17,4.13,4.13,0,0,0-2.8,1,7.29,7.29,0,0,0-1.88,2.83v11.61Z"/><path class="cls-6" d="M235.15,397.08v-15.5l-2-.23a1.6,1.6,0,0,1-.62-.28.65.65,0,0,1-.24-.55V379.2h2.88v-1.76a8.11,8.11,0,0,1,.44-2.78,5.64,5.64,0,0,1,1.26-2.05,5.33,5.33,0,0,1,2-1.27,7.33,7.33,0,0,1,2.59-.43,6.9,6.9,0,0,1,2.27.36l-.07,1.6a.41.41,0,0,1-.31.43,3.47,3.47,0,0,1-.81.07h-.56a4.93,4.93,0,0,0-1.5.22,2.84,2.84,0,0,0-1.16.7,3.17,3.17,0,0,0-.75,1.28,6.31,6.31,0,0,0-.26,2v1.67h5.27v2.32h-5.17v15.55Z"/><path class="cls-6" d="M253.94,378.55a9.38,9.38,0,0,1,3.61.67,7.61,7.61,0,0,1,2.74,1.89,8.37,8.37,0,0,1,1.73,3,12.81,12.81,0,0,1,0,7.77,8.38,8.38,0,0,1-1.73,3,7.51,7.51,0,0,1-2.74,1.88,10.24,10.24,0,0,1-7.22,0,7.59,7.59,0,0,1-2.75-1.88,8.41,8.41,0,0,1-1.75-3,12.62,12.62,0,0,1,0-7.77,8.41,8.41,0,0,1,1.75-3,7.69,7.69,0,0,1,2.75-1.89A9.37,9.37,0,0,1,253.94,378.55Zm0,16.27a4.68,4.68,0,0,0,4-1.81,10.29,10.29,0,0,0,0-10.12,4.67,4.67,0,0,0-4-1.82,5.6,5.6,0,0,0-2.38.47,4.46,4.46,0,0,0-1.68,1.35,6,6,0,0,0-1,2.17,12.81,12.81,0,0,0,0,5.8,5.9,5.9,0,0,0,1,2.15,4.49,4.49,0,0,0,1.68,1.34A5.6,5.6,0,0,0,253.94,394.83Z"/><path class="cls-6" d="M266.58,397.08V378.84h1.84a1,1,0,0,1,.72.2,1.22,1.22,0,0,1,.27.68l.22,2.84a8.35,8.35,0,0,1,2.31-3,5.45,5.45,0,0,1,4.6-.9,4.76,4.76,0,0,1,1.13.48l-.41,2.39a.54.54,0,0,1-.56.45,2.8,2.8,0,0,1-.77-.17,4.9,4.9,0,0,0-1.46-.17,4.13,4.13,0,0,0-2.8,1,7.29,7.29,0,0,0-1.88,2.83v11.61Z"/><path class="cls-6" d="M294.17,378.54a9.09,9.09,0,0,1,2.22.26,7,7,0,0,1,1.88.77h5v1.19q0,.59-.76.76l-2.07.29a5.56,5.56,0,0,1,.61,2.61,5.61,5.61,0,0,1-.51,2.42,5.5,5.5,0,0,1-1.42,1.86,6.38,6.38,0,0,1-2.16,1.19,8.68,8.68,0,0,1-2.75.41,9.23,9.23,0,0,1-2.41-.31,3.06,3.06,0,0,0-.87.8,1.47,1.47,0,0,0-.3.84,1.14,1.14,0,0,0,.52,1,3.62,3.62,0,0,0,1.39.49,11.6,11.6,0,0,0,2,.15h2.24a12.45,12.45,0,0,1,2.24.2,6.81,6.81,0,0,1,2,.66,3.66,3.66,0,0,1,1.39,1.26,3.75,3.75,0,0,1,.52,2.08,4.87,4.87,0,0,1-.58,2.3,6.2,6.2,0,0,1-1.68,2,8.64,8.64,0,0,1-2.68,1.38,11.49,11.49,0,0,1-3.58.52,13.83,13.83,0,0,1-3.5-.4,8.2,8.2,0,0,1-2.49-1.06,4.63,4.63,0,0,1-1.49-1.54,3.66,3.66,0,0,1-.49-1.83,3.3,3.3,0,0,1,.85-2.3,5.87,5.87,0,0,1,2.35-1.5,3.22,3.22,0,0,1-1.23-1,2.59,2.59,0,0,1-.46-1.61,2.53,2.53,0,0,1,.14-.82,3.22,3.22,0,0,1,.44-.84,4.7,4.7,0,0,1,1.74-1.46,5.67,5.67,0,0,1-2.12-2,5.49,5.49,0,0,1-.77-2.92,5.61,5.61,0,0,1,.51-2.42,5.35,5.35,0,0,1,1.43-1.85,6.55,6.55,0,0,1,2.19-1.18A8.91,8.91,0,0,1,294.17,378.54ZM299.86,398a1.62,1.62,0,0,0-.38-1.12,2.44,2.44,0,0,0-1-.65,7.34,7.34,0,0,0-1.49-.34,13.83,13.83,0,0,0-1.78-.11h-1.91a7,7,0,0,1-1.85-.24,5.26,5.26,0,0,0-1.67,1.19,2.41,2.41,0,0,0-.64,1.68,2.2,2.2,0,0,0,.32,1.15,2.68,2.68,0,0,0,1,.92,5.65,5.65,0,0,0,1.63.61,10.48,10.48,0,0,0,2.31.23,10.28,10.28,0,0,0,2.32-.24,5.8,5.8,0,0,0,1.74-.68,3.31,3.31,0,0,0,1.09-1A2.48,2.48,0,0,0,299.86,398Zm-5.69-9.84a5.05,5.05,0,0,0,1.72-.27,3.5,3.5,0,0,0,1.25-.76,3.1,3.1,0,0,0,.76-1.16,4.22,4.22,0,0,0,.25-1.49,3.54,3.54,0,0,0-1-2.66,4.89,4.89,0,0,0-5.9,0,3.54,3.54,0,0,0-1,2.66,4.07,4.07,0,0,0,.26,1.49,3.19,3.19,0,0,0,.76,1.16,3.51,3.51,0,0,0,1.24.76A4.91,4.91,0,0,0,294.17,388.17Z"/><path class="cls-6" d="M313.81,378.55a9.38,9.38,0,0,1,3.61.67,7.61,7.61,0,0,1,2.74,1.89,8.37,8.37,0,0,1,1.73,3,12.81,12.81,0,0,1,0,7.77,8.38,8.38,0,0,1-1.73,3,7.51,7.51,0,0,1-2.74,1.88,10.24,10.24,0,0,1-7.22,0,7.59,7.59,0,0,1-2.75-1.88,8.4,8.4,0,0,1-1.75-3,12.62,12.62,0,0,1,0-7.77,8.39,8.39,0,0,1,1.75-3,7.69,7.69,0,0,1,2.75-1.89A9.37,9.37,0,0,1,313.81,378.55Zm0,16.27a4.68,4.68,0,0,0,4-1.81,10.29,10.29,0,0,0,0-10.12,4.67,4.67,0,0,0-4-1.82,5.6,5.6,0,0,0-2.38.47,4.46,4.46,0,0,0-1.68,1.35,6,6,0,0,0-1,2.17,12.81,12.81,0,0,0,0,5.8,5.9,5.9,0,0,0,1,2.15,4.49,4.49,0,0,0,1.68,1.34A5.6,5.6,0,0,0,313.81,394.83Z"/><path class="cls-6" d="M323.67,378.84h2.63a1,1,0,0,1,.63.2,1.13,1.13,0,0,1,.36.47l4.63,11.74a8.87,8.87,0,0,1,.4,1.3q.14.65.27,1.28.14-.63.31-1.28a10.88,10.88,0,0,1,.41-1.3L338,379.51a1.07,1.07,0,0,1,.35-.48,1,1,0,0,1,.6-.19h2.5L334,397.08h-2.9Z"/><path class="cls-6" d="M351.16,378.55a8.14,8.14,0,0,1,3,.55,6.78,6.78,0,0,1,2.39,1.58,7.22,7.22,0,0,1,1.58,2.56,9.88,9.88,0,0,1,.57,3.46,2.1,2.1,0,0,1-.16,1,.67.67,0,0,1-.61.25H345.81a10.05,10.05,0,0,0,.47,3,6.16,6.16,0,0,0,1.19,2.13,4.74,4.74,0,0,0,1.8,1.28,6.17,6.17,0,0,0,2.34.42,6.85,6.85,0,0,0,2.08-.28,9.76,9.76,0,0,0,1.5-.6,11.34,11.34,0,0,0,1.05-.6A1.4,1.4,0,0,1,357,393a.71.71,0,0,1,.61.31l.9,1.17a6.1,6.1,0,0,1-1.42,1.25,8.88,8.88,0,0,1-1.77.87,11.32,11.32,0,0,1-2,.51,11.92,11.92,0,0,1-2,.17,9.28,9.28,0,0,1-3.48-.64,7.65,7.65,0,0,1-2.75-1.87,8.58,8.58,0,0,1-1.81-3.05,12.39,12.39,0,0,1-.65-4.18,10.63,10.63,0,0,1,.58-3.56,8.39,8.39,0,0,1,1.68-2.87,7.74,7.74,0,0,1,2.68-1.91A8.8,8.8,0,0,1,351.16,378.55Zm.07,2.36a4.92,4.92,0,0,0-3.65,1.34,6.31,6.31,0,0,0-1.66,3.72h9.92a6.49,6.49,0,0,0-.31-2,4.57,4.57,0,0,0-.9-1.6,4,4,0,0,0-1.45-1A4.89,4.89,0,0,0,351.23,380.91Z"/><path class="cls-6" d="M362.81,397.08V378.84h1.84a1,1,0,0,1,.72.2,1.22,1.22,0,0,1,.27.68l.22,2.84a8.35,8.35,0,0,1,2.31-3,5.45,5.45,0,0,1,4.6-.9,4.76,4.76,0,0,1,1.13.48l-.41,2.39a.54.54,0,0,1-.56.45,2.8,2.8,0,0,1-.77-.17,4.9,4.9,0,0,0-1.46-.17,4.13,4.13,0,0,0-2.8,1,7.29,7.29,0,0,0-1.88,2.83v11.61Z"/><path class="cls-6" d="M377.31,397.08V378.84h1.91a.82.82,0,0,1,.86.67l.25,2a10.25,10.25,0,0,1,2.65-2.12,6.91,6.91,0,0,1,3.39-.81,6.6,6.6,0,0,1,2.64.5,5.12,5.12,0,0,1,1.91,1.4,6.22,6.22,0,0,1,1.16,2.19,9.52,9.52,0,0,1,.4,2.83v11.61h-3.2V385.47a4.91,4.91,0,0,0-.94-3.21,3.53,3.53,0,0,0-2.89-1.14,5.38,5.38,0,0,0-2.65.68,8.73,8.73,0,0,0-2.28,1.85v13.43Z"/><path class="cls-6" d="M397.33,397.08V378.84h1.91a.82.82,0,0,1,.86.67l.23,1.87a9.36,9.36,0,0,1,2.26-2,5.33,5.33,0,0,1,2.91-.79,4.32,4.32,0,0,1,3,1,5.79,5.79,0,0,1,1.65,2.77,5.7,5.7,0,0,1,1-1.71,5.81,5.81,0,0,1,1.39-1.19,5.89,5.89,0,0,1,1.65-.68,7.33,7.33,0,0,1,1.77-.22,6.75,6.75,0,0,1,2.57.46,5.09,5.09,0,0,1,1.91,1.34,6,6,0,0,1,1.2,2.17,9.59,9.59,0,0,1,.41,2.94v11.61h-3.2V385.47a4.92,4.92,0,0,0-.94-3.25,3.36,3.36,0,0,0-2.72-1.11,4.06,4.06,0,0,0-1.5.28,3.61,3.61,0,0,0-1.25.82,3.84,3.84,0,0,0-.86,1.36,5.27,5.27,0,0,0-.32,1.9v11.61h-3.2V385.47a5.11,5.11,0,0,0-.88-3.28,3.13,3.13,0,0,0-2.57-1.08,4.07,4.07,0,0,0-2.21.64,7.19,7.19,0,0,0-1.86,1.74v13.59Z"/><path class="cls-6" d="M434.1,378.55a8.14,8.14,0,0,1,3,.55,6.78,6.78,0,0,1,2.39,1.58,7.22,7.22,0,0,1,1.58,2.56,9.88,9.88,0,0,1,.57,3.46,2.1,2.1,0,0,1-.16,1,.67.67,0,0,1-.61.25H428.76a10.05,10.05,0,0,0,.47,3,6.16,6.16,0,0,0,1.19,2.13,4.74,4.74,0,0,0,1.8,1.28,6.17,6.17,0,0,0,2.34.42,6.85,6.85,0,0,0,2.08-.28,9.76,9.76,0,0,0,1.5-.6,11.34,11.34,0,0,0,1.05-.6,1.4,1.4,0,0,1,.73-.28.71.71,0,0,1,.61.31l.9,1.17a6.1,6.1,0,0,1-1.42,1.25,8.88,8.88,0,0,1-1.77.87,11.32,11.32,0,0,1-2,.51,11.92,11.92,0,0,1-2,.17,9.28,9.28,0,0,1-3.48-.64,7.65,7.65,0,0,1-2.75-1.87,8.58,8.58,0,0,1-1.81-3.05,12.39,12.39,0,0,1-.65-4.18,10.63,10.63,0,0,1,.58-3.56,8.39,8.39,0,0,1,1.68-2.87,7.74,7.74,0,0,1,2.68-1.91A8.8,8.8,0,0,1,434.1,378.55Zm.07,2.36a4.92,4.92,0,0,0-3.65,1.34,6.31,6.31,0,0,0-1.66,3.72h9.92a6.49,6.49,0,0,0-.31-2,4.57,4.57,0,0,0-.9-1.6,4,4,0,0,0-1.45-1A4.89,4.89,0,0,0,434.17,380.91Z"/><path class="cls-6" d="M445.75,397.08V378.84h1.91a.82.82,0,0,1,.86.67l.25,2a10.25,10.25,0,0,1,2.65-2.12,6.91,6.91,0,0,1,3.39-.81,6.6,6.6,0,0,1,2.64.5,5.12,5.12,0,0,1,1.91,1.4,6.22,6.22,0,0,1,1.16,2.19,9.52,9.52,0,0,1,.4,2.83v11.61h-3.2V385.47a4.91,4.91,0,0,0-.94-3.21,3.53,3.53,0,0,0-2.89-1.14,5.38,5.38,0,0,0-2.65.68,8.73,8.73,0,0,0-2.28,1.85v13.43Z"/><path class="cls-6" d="M471.29,397.36a4.4,4.4,0,0,1-3.32-1.21,4.81,4.81,0,0,1-1.16-3.47V381.52h-2.2a.72.72,0,0,1-.49-.17.66.66,0,0,1-.2-.53v-1.28l3-.38.74-5.63a.69.69,0,0,1,.23-.44.75.75,0,0,1,.5-.17H470v6.28h5.22v2.32H470v10.94a2.33,2.33,0,0,0,.56,1.71,2,2,0,0,0,1.44.56,2.55,2.55,0,0,0,.87-.13,3.76,3.76,0,0,0,.64-.3l.46-.3a.6.6,0,0,1,.33-.13.55.55,0,0,1,.45.31l.94,1.53a6,6,0,0,1-2,1.21A6.79,6.79,0,0,1,471.29,397.36Z"/></g></g></g></svg>