<svg xmlns="http://www.w3.org/2000/svg" viewBox="0 0 397.31 453.98"><defs><style>.cls-1{fill:#e6e6e6;opacity:0.64;}.cls-2{opacity:0.5;}.cls-3{fill:#f2f2f2;}.cls-10,.cls-11,.cls-12,.cls-13,.cls-14,.cls-16,.cls-17,.cls-18,.cls-19,.cls-20,.cls-21,.cls-22,.cls-23,.cls-24,.cls-25,.cls-26,.cls-27,.cls-28,.cls-29,.cls-4,.cls-5,.cls-6,.cls-7,.cls-8,.cls-9{fill:none;stroke-miterlimit:10;}.cls-10,.cls-11,.cls-12,.cls-13,.cls-14,.cls-4,.cls-5,.cls-6,.cls-7,.cls-8,.cls-9{stroke:#4d4d4d;stroke-width:5px;}.cls-5{stroke-dasharray:11.72 11.72;}.cls-6{stroke-dasharray:11.96 11.96;}.cls-7{stroke-dasharray:11.95 11.95;}.cls-8{stroke-dasharray:12.3 12.3;}.cls-9{stroke-dasharray:12.11 12.11;}.cls-10{stroke-dasharray:11.98 11.98;}.cls-11{stroke-dasharray:11.08 11.08;}.cls-12{stroke-dasharray:11.61 11.61;}.cls-13{stroke-dasharray:10.91 10.91;}.cls-14{stroke-dasharray:11.91 11.91;}.cls-15{fill:#fff;}.cls-16,.cls-17,.cls-18,.cls-19,.cls-20,.cls-26,.cls-27,.cls-28,.cls-29{stroke:#b3b3b3;}.cls-16,.cls-17,.cls-18,.cls-19,.cls-20,.cls-21,.cls-22,.cls-23,.cls-24,.cls-25,.cls-26,.cls-27,.cls-28,.cls-29{stroke-width:3px;}.cls-17{stroke-dasharray:1.95 1.95;}.cls-18{stroke-dasharray:1.97 1.97;}.cls-19{stroke-dasharray:1.94 1.94;}.cls-20{stroke-dasharray:2.02 2.02;}.cls-21,.cls-22,.cls-23,.cls-24,.cls-25{stroke:#ccc;}.cls-22{stroke-dasharray:1.92 1.92;}.cls-23{stroke-dasharray:1.94 1.94;}.cls-24{stroke-dasharray:1.91 1.91;}.cls-25{stroke-dasharray:1.99 1.99;}.cls-26{stroke-dasharray:2.01 2.01;}.cls-27{stroke-dasharray:1.98 1.98;}.cls-28{stroke-dasharray:1.96 1.96;}.cls-29{stroke-dasharray:2.04 2.04;}.cls-30{opacity:0.41;}</style></defs><title>Asset 16</title><g id="Layer_2" data-name="Layer 2"><g id="Layer_1-2" data-name="Layer 1"><path class="cls-1" d="M161.45,17V64.76a29.71,29.71,0,0,1-29.71,29.71H82.95V46.68c0-.38,0-.75,0-1.12A29.7,29.7,0,0,1,112.66,17Z"/><g class="cls-2"><path class="cls-3" d="M271.95,48.68V223.26A29.71,29.71,0,0,1,242.24,253H115.66a29.46,29.46,0,0,1-13.13-3.06,29.68,29.68,0,0,1-16.58-26.65V96.47H129.4a35,35,0,0,0,35.05-35V19h77.79A29.71,29.71,0,0,1,271.95,48.68Z"/><polyline class="cls-4" points="85.95 102.47 85.95 96.47 91.95 96.47"/><path class="cls-5" d="M103.67,96.47H129.4a35,35,0,0,0,35.05-35V30.83"/><polyline class="cls-4" points="164.45 24.97 164.45 18.97 170.45 18.97"/><path class="cls-6" d="M182.4,19h59.83a29.71,29.71,0,0,1,29.71,29.71V223.26A29.71,29.71,0,0,1,242.24,253H115.66a29.46,29.46,0,0,1-13.13-3.06,29.68,29.68,0,0,1-16.58-26.65V108.44"/></g><g class="cls-2"><path class="cls-3" d="M91.48,240.53,13,173.78A29.71,29.71,0,0,1,9.58,131.9L83,45.56c0,.37,0,.74,0,1.12V94.47h4.5v2h-1.5V223.26A29.55,29.55,0,0,0,91.48,240.53Z"/><path class="cls-4" d="M88.5,235.33a29.6,29.6,0,0,0,3,5.2l-4.57-3.89"/><path class="cls-7" d="M77.8,228.9,13,173.78A29.71,29.71,0,0,1,9.58,131.9L75.22,54.68"/><path class="cls-4" d="M79.09,50.13,83,45.56c0,.37,0,.74,0,1.12v4.88"/><line class="cls-8" x1="82.95" y1="63.86" x2="82.95" y2="82.31"/><polyline class="cls-4" points="82.95 88.47 82.95 94.47 87.45 94.47 87.45 96.47 85.95 96.47 85.95 102.47"/><path class="cls-9" d="M85.95,114.58V223.26a29.87,29.87,0,0,0,.67,6.33"/></g><g class="cls-2"><path class="cls-3" d="M213.79,253l-25.93,30.5A29.7,29.7,0,0,1,146,286.86l-43.46-37A29.46,29.46,0,0,0,115.66,253Z"/><polyline class="cls-4" points="207.79 252.97 213.79 252.97 209.9 257.54"/><path class="cls-10" d="M202.14,266.66l-14.29,16.81A29.7,29.7,0,0,1,146,286.86l-34.33-29.19"/><path class="cls-4" d="M107.1,253.79l-4.57-3.89a29.27,29.27,0,0,0,5.61,2.1"/><line class="cls-11" x1="119.14" y1="252.97" x2="202.24" y2="252.97"/></g><g class="cls-2"><path class="cls-3" d="M392,126.91l-67.47,161a29.72,29.72,0,0,1-38.89,15.92L168.86,254.92a29.55,29.55,0,0,1-3.85-2h77.23a29.71,29.71,0,0,0,29.71-29.71V114.54a34.86,34.86,0,0,0,15.94-17.43L304.29,58,376,88A29.72,29.72,0,0,1,392,126.91Z"/><path class="cls-4" d="M170.41,255.57l-1.55-.65a29.55,29.55,0,0,1-3.85-2h6"/><path class="cls-12" d="M182.62,253h59.62a29.71,29.71,0,0,0,29.71-29.71V126.34"/><path class="cls-4" d="M271.95,120.54v-6a35.25,35.25,0,0,0,5-3.24"/><path class="cls-13" d="M284.45,103.41a35.07,35.07,0,0,0,3.43-6.31l12-28.58"/><polyline class="cls-4" points="301.97 63.49 304.29 57.96 309.82 60.27"/><path class="cls-14" d="M320.81,64.88,376,88A29.72,29.72,0,0,1,392,126.91l-67.47,161a29.72,29.72,0,0,1-38.89,15.92l-109.7-46"/></g><path class="cls-15" d="M186.25,38.05h-.16c-18.59-18.82-28.64-8.65-38.79,2.54h-.16v-.16c16.41-16.7,8.81-27-.83-37.23,15.64,17.8,26,7.2,35.84-2.08C159.79,20.44,186.25,38.05,186.25,38.05Z"/><path class="cls-16" d="M185.44,37.47c.51.38.81.58.81.58h-.16l-.71-.71"/><path class="cls-17" d="M184,36c-16.53-15.31-26.1-6.93-35.46,3.25"/><path class="cls-16" d="M147.87,40l-.57.62h-.16v-.16l.7-.72"/><path class="cls-18" d="M149.16,38.28c13-14.68,7-24.28-1.51-33.61"/><path class="cls-16" d="M147,3.95l-.68-.73L147,4"/><path class="cls-19" d="M148.31,5.37c13.8,14,23.4,5.59,32.4-2.89"/><path class="cls-16" d="M181.42,1.82l.73-.68-.75.66"/><path class="cls-20" d="M179.93,3.2c-15.37,15.53-.45,29.57,4.71,33.66"/><path class="cls-15" d="M241.95,131.22l-.11.11c-26-1.82-26.8,12.24-27,27.11l-.11.11-.11-.11c1.26-23-11-25.68-24.84-27,23.14,3,23.9-11.59,25.14-24.85C210.92,135.41,241.95,131.22,241.95,131.22Z"/><path class="cls-21" d="M241,131.31c.63-.05,1-.1,1-.1l-.11.11-1-.06"/><path class="cls-22" d="M238.92,131.18c-22.17-.56-23.79,11.85-24.08,25.46"/><path class="cls-21" d="M214.82,157.6q0,.42,0,.84l-.11.11-.11-.11q0-.51,0-1"/><path class="cls-23" d="M214.67,155.5c.08-19.31-10.59-22.51-23-23.86"/><path class="cls-21" d="M190.74,131.55l-1-.1,1,.12"/><path class="cls-24" d="M192.65,131.74c19.28,1.35,20.93-11.08,22.06-23.2"/><path class="cls-21" d="M214.8,107.59l.09-1q-.07.5-.12,1"/><path class="cls-25" d="M214.6,109.57C213.35,131,233.48,131.71,240,131.38"/><path class="cls-15" d="M191.75,175.37l-.15.15c-36.25-2.54-37.38,17.07-37.7,37.81l-.15.15-.15-.15c1.76-32.11-15.4-35.82-34.64-37.64,32.28,4.16,33.34-16.16,35.07-34.67C148.48,181.23,191.75,175.37,191.75,175.37Z"/><path class="cls-16" d="M190.76,175.48c.64-.06,1-.11,1-.11l-.15.15-1-.06"/><path class="cls-26" d="M188.59,175.36c-32.32-1.22-34.29,16.72-34.67,36.19"/><path class="cls-16" d="M153.91,212.56v.78l-.15.15-.15-.15q0-.5,0-1"/><path class="cls-27" d="M153.7,210.36c.54-28.32-15-32.61-32.77-34.47"/><path class="cls-16" d="M119.94,175.79l-1-.1,1,.12"/><path class="cls-28" d="M121.89,176c28.33,2.47,30.33-15.66,31.94-33"/><path class="cls-16" d="M153.92,142l.09-1q-.07.5-.13,1"/><path class="cls-29" d="M153.68,144.05c-2.6,31.94,27.87,32,36.06,31.5"/><g class="cls-30"><path d="M107.88,368.85V374H92.5v9.62h12.12v5H92.5v9.82h15.38v5.16H86v-34.7Z"/><path d="M113.14,403.55V378.93h3.62a1.46,1.46,0,0,1,1.51,1.08l.38,1.82a14,14,0,0,1,1.36-1.32,8.73,8.73,0,0,1,1.51-1,8.18,8.18,0,0,1,1.73-.68,7.69,7.69,0,0,1,2-.25,5.75,5.75,0,0,1,3.83,1.26,7.59,7.59,0,0,1,2.24,3.35,7.51,7.51,0,0,1,1.44-2.1,7.89,7.89,0,0,1,1.9-1.43,8.75,8.75,0,0,1,2.2-.82,10.55,10.55,0,0,1,2.34-.26,9.83,9.83,0,0,1,3.62.62,6.94,6.94,0,0,1,2.66,1.82,8.05,8.05,0,0,1,1.64,2.93,12.78,12.78,0,0,1,.56,4v15.67h-5.93V387.88a5.27,5.27,0,0,0-1-3.54,3.79,3.79,0,0,0-3-1.19,4.51,4.51,0,0,0-1.69.31,4,4,0,0,0-1.37.9,4.11,4.11,0,0,0-.92,1.48,5.72,5.72,0,0,0-.34,2v15.67h-6V387.88a5.37,5.37,0,0,0-1-3.6,3.72,3.72,0,0,0-2.94-1.13,4.75,4.75,0,0,0-2.39.64,8,8,0,0,0-2.08,1.74v18Z"/><path d="M153.55,411.59V378.93h3.62a1.78,1.78,0,0,1,1,.26,1.24,1.24,0,0,1,.53.82l.48,2.28a12.44,12.44,0,0,1,3.42-2.76,9.3,9.3,0,0,1,4.52-1.06,8.08,8.08,0,0,1,3.68.84,8.28,8.28,0,0,1,2.88,2.44,11.7,11.7,0,0,1,1.87,3.94,19.83,19.83,0,0,1,.66,5.36,16.87,16.87,0,0,1-.74,5.11,12.52,12.52,0,0,1-2.12,4.08,9.81,9.81,0,0,1-3.34,2.7,9.71,9.71,0,0,1-4.38,1,8.81,8.81,0,0,1-3.54-.64,8.66,8.66,0,0,1-2.6-1.76v10.08Zm11.52-28.44a6.06,6.06,0,0,0-3.16.78,9.13,9.13,0,0,0-2.44,2.2v11a5.64,5.64,0,0,0,2.2,1.74,6.61,6.61,0,0,0,2.56.49,5.75,5.75,0,0,0,2.44-.5,4.72,4.72,0,0,0,1.85-1.54,7.6,7.6,0,0,0,1.16-2.6,14.86,14.86,0,0,0,.41-3.71,16.49,16.49,0,0,0-.35-3.66,7.08,7.08,0,0,0-1-2.44,4,4,0,0,0-1.57-1.37A4.9,4.9,0,0,0,165.07,383.15Z"/><path d="M188.78,403.93a6.48,6.48,0,0,1-4.92-1.81,7,7,0,0,1-1.73-5V383.37h-2.5a1.14,1.14,0,0,1-1.18-1.25v-2.35l4-.65,1.25-6.72a1.19,1.19,0,0,1,.44-.74,1.41,1.41,0,0,1,.88-.26h3.07v7.75h6.48v4.22h-6.48v13.34a2.61,2.61,0,0,0,.58,1.8,2,2,0,0,0,1.54.65,2.77,2.77,0,0,0,.92-.13,4.94,4.94,0,0,0,.65-.28l.49-.28a.82.82,0,0,1,.43-.13.68.68,0,0,1,.43.13,2,2,0,0,1,.36.4l1.78,2.88a9,9,0,0,1-3,1.63A11.07,11.07,0,0,1,188.78,403.93Z"/><path d="M208,410.32a2.3,2.3,0,0,1-.68.95,2.09,2.09,0,0,1-1.28.32h-4.42l4.61-9.86-10-22.8h5.18a1.63,1.63,0,0,1,1.1.34,2.23,2.23,0,0,1,.58.77l5.26,12.77a11.34,11.34,0,0,1,.46,1.3q.19.67.34,1.34.19-.7.42-1.34t.49-1.32L215,380a1.74,1.74,0,0,1,.64-.79,1.69,1.69,0,0,1,1-.31h4.75Z"/><path d="M235.2,403.55V383.39l-2.14-.34a2.28,2.28,0,0,1-1.12-.48,1.26,1.26,0,0,1-.42-1v-2.42h3.67v-1.82a10.63,10.63,0,0,1,.64-3.79,7.68,7.68,0,0,1,4.72-4.66,11.11,11.11,0,0,1,3.84-.62,10.62,10.62,0,0,1,3.17.46l-.12,3a.86.86,0,0,1-.65.86,5.18,5.18,0,0,1-1.39.17,7.13,7.13,0,0,0-1.88.23,3.19,3.19,0,0,0-1.4.79,3.6,3.6,0,0,0-.88,1.49,7.51,7.51,0,0,0-.3,2.29v1.63h6.41v4.22h-6.22v20.18Z"/><path d="M261.48,378.54a13.5,13.5,0,0,1,5,.89,10.79,10.79,0,0,1,3.83,2.52,11.15,11.15,0,0,1,2.45,4,16.49,16.49,0,0,1,0,10.54,11.39,11.39,0,0,1-2.45,4,10.62,10.62,0,0,1-3.83,2.54,14.57,14.57,0,0,1-10,0,10.73,10.73,0,0,1-3.85-2.54,11.45,11.45,0,0,1-2.47-4,16.28,16.28,0,0,1,0-10.54,11.21,11.21,0,0,1,2.47-4,10.89,10.89,0,0,1,3.85-2.52A13.59,13.59,0,0,1,261.48,378.54Zm0,20.81a5.21,5.21,0,0,0,4.55-2.06,10.35,10.35,0,0,0,1.48-6,10.46,10.46,0,0,0-1.48-6.07,5.19,5.19,0,0,0-4.55-2.09,5.26,5.26,0,0,0-4.61,2.1,10.41,10.41,0,0,0-1.49,6.06,10.29,10.29,0,0,0,1.49,6A5.28,5.28,0,0,0,261.48,399.35Z"/><path d="M278.25,403.55V378.93h3.48a1.87,1.87,0,0,1,1.27.34,1.94,1.94,0,0,1,.48,1.15l.36,3a11.69,11.69,0,0,1,3.1-3.6,6.51,6.51,0,0,1,4-1.32,5.16,5.16,0,0,1,3,.84l-.77,4.44a.92.92,0,0,1-.31.61,1.06,1.06,0,0,1-.65.18,4,4,0,0,1-1-.17,6.58,6.58,0,0,0-1.66-.17,5,5,0,0,0-3.17,1,7.87,7.87,0,0,0-2.23,3v15.34Z"/><path d="M297.86,403.55V378.93h3.62A1.46,1.46,0,0,1,303,380l.38,1.82a14,14,0,0,1,1.36-1.32,8.73,8.73,0,0,1,1.51-1,8.18,8.18,0,0,1,1.73-.68,7.69,7.69,0,0,1,2-.25,5.75,5.75,0,0,1,3.83,1.26,7.59,7.59,0,0,1,2.24,3.35,7.51,7.51,0,0,1,1.44-2.1,7.89,7.89,0,0,1,1.9-1.43,8.75,8.75,0,0,1,2.2-.82,10.55,10.55,0,0,1,2.34-.26,9.83,9.83,0,0,1,3.62.62,6.94,6.94,0,0,1,2.66,1.82,8.05,8.05,0,0,1,1.64,2.93,12.78,12.78,0,0,1,.56,4v15.67h-5.93V387.88a5.27,5.27,0,0,0-1-3.54,3.79,3.79,0,0,0-3-1.19,4.51,4.51,0,0,0-1.69.31,4,4,0,0,0-1.37.9,4.11,4.11,0,0,0-.92,1.48,5.72,5.72,0,0,0-.34,2v15.67h-6V387.88a5.37,5.37,0,0,0-1-3.6,3.72,3.72,0,0,0-2.94-1.13,4.75,4.75,0,0,0-2.39.64,8,8,0,0,0-2.08,1.74v18Z"/><path d="M340.13,400.29a3.68,3.68,0,0,1,.28-1.42,3.38,3.38,0,0,1,.77-1.15,3.76,3.76,0,0,1,1.16-.77,3.61,3.61,0,0,1,1.44-.29,3.55,3.55,0,0,1,1.42.29,3.52,3.52,0,0,1,1.92,1.92,3.65,3.65,0,0,1,0,2.84,3.67,3.67,0,0,1-.77,1.14,3.48,3.48,0,0,1-1.15.76,3.68,3.68,0,0,1-1.42.28,3.74,3.74,0,0,1-1.44-.28,3.6,3.6,0,0,1-1.16-.76,3.39,3.39,0,0,1-.77-1.14A3.65,3.65,0,0,1,340.13,400.29Zm6.5-31.44v13.73a41.67,41.67,0,0,1-.22,4.28q-.22,2.1-.58,4.45h-4q-.36-2.35-.58-4.45a42,42,0,0,1-.22-4.28V368.85Z"/></g><g class="cls-30"><path d="M9,440l-1.17,9.54H4.51l3.1-25.41h7a11.51,11.51,0,0,1,3.51.48A6.53,6.53,0,0,1,20.58,426,5.56,5.56,0,0,1,22,428.11a7.62,7.62,0,0,1,.48,2.77,10,10,0,0,1-.66,3.68,8,8,0,0,1-1.91,2.88,8.8,8.8,0,0,1-3.08,1.89,12,12,0,0,1-4.19.68Zm1.63-13.26L9.3,437.39H13a7.12,7.12,0,0,0,2.66-.46,5.38,5.38,0,0,0,1.93-1.29,5.52,5.52,0,0,0,1.19-2,7.35,7.35,0,0,0,.41-2.49,5.29,5.29,0,0,0-.3-1.84,3.65,3.65,0,0,0-.9-1.39,4,4,0,0,0-1.52-.89,6.76,6.76,0,0,0-2.15-.31Z"/><path d="M24,449.55l3.17-26.12h3.1l-3.17,26.12Z"/><path d="M46.53,435.44a4.86,4.86,0,0,1-.48,2.15,4.48,4.48,0,0,1-1.75,1.77,13.15,13.15,0,0,1-3.51,1.37,38.79,38.79,0,0,1-5.75.94c0,.13,0,.26,0,.38v.38a5.55,5.55,0,0,0,1,3.63,3.83,3.83,0,0,0,3.13,1.25,5.9,5.9,0,0,0,1.52-.18,6.5,6.5,0,0,0,1.19-.43,5.37,5.37,0,0,0,.92-.57l.74-.57q.34-.26.62-.43a1.06,1.06,0,0,1,.57-.18.77.77,0,0,1,.58.3l.78,1a16.51,16.51,0,0,1-1.76,1.6,10.32,10.32,0,0,1-1.76,1.11,8,8,0,0,1-1.89.65,10.46,10.46,0,0,1-2.12.2,7.09,7.09,0,0,1-2.77-.51,5.73,5.73,0,0,1-2.07-1.46,6.59,6.59,0,0,1-1.31-2.3,9.26,9.26,0,0,1-.46-3,13.19,13.19,0,0,1,.29-2.76,12.93,12.93,0,0,1,.85-2.62,11.91,11.91,0,0,1,1.37-2.31A9.19,9.19,0,0,1,36.31,433a8.69,8.69,0,0,1,2.29-1.21,8,8,0,0,1,2.69-.44,6.45,6.45,0,0,1,2.36.39,5,5,0,0,1,1.63,1,4,4,0,0,1,.95,1.33A3.55,3.55,0,0,1,46.53,435.44Zm-5.43-1.83a4.6,4.6,0,0,0-2.06.46,5.48,5.48,0,0,0-1.67,1.27,7.75,7.75,0,0,0-1.24,1.9,11.33,11.33,0,0,0-.8,2.35,34.53,34.53,0,0,0,4.38-.77,10.92,10.92,0,0,0,2.54-.94,2.45,2.45,0,0,0,1.45-2.31,1.78,1.78,0,0,0-.59-1.29,2.47,2.47,0,0,0-.81-.47A3.45,3.45,0,0,0,41.11,433.61Z"/><path d="M61.73,449.55H60.1a1,1,0,0,1-.84-.32,1.34,1.34,0,0,1-.22-.78l.32-3.6a15.15,15.15,0,0,1-1.37,2,9.48,9.48,0,0,1-1.56,1.56,6.84,6.84,0,0,1-1.73,1,5.14,5.14,0,0,1-1.88.35,4.42,4.42,0,0,1-1.93-.42,4,4,0,0,1-1.48-1.22,5.94,5.94,0,0,1-.95-2,9.83,9.83,0,0,1-.34-2.7,12.2,12.2,0,0,1,.4-3.11,12.66,12.66,0,0,1,2.9-5.34,11.88,11.88,0,0,1,2.3-2,10.92,10.92,0,0,1,2.72-1.28,10.24,10.24,0,0,1,3-.45,13.21,13.21,0,0,1,2.24.19,9.32,9.32,0,0,1,2.15.65ZM54,447.17a3.13,3.13,0,0,0,1.7-.53,6.52,6.52,0,0,0,1.58-1.48,12.83,12.83,0,0,0,1.39-2.24,20.19,20.19,0,0,0,1.14-2.85l.76-6.07a1.23,1.23,0,0,0-.77-.32h-.75A6.24,6.24,0,0,0,57,434a7.38,7.38,0,0,0-1.86,1,8.28,8.28,0,0,0-1.58,1.48,9.6,9.6,0,0,0-1.21,1.88,10.68,10.68,0,0,0-.79,2.18,9.94,9.94,0,0,0-.28,2.38Q51.27,447.17,54,447.17Z"/><path d="M78,434.46a1.15,1.15,0,0,1-.28.31.61.61,0,0,1-.35.1,1,1,0,0,1-.54-.2c-.19-.13-.43-.27-.71-.43a5.9,5.9,0,0,0-1-.44,5.07,5.07,0,0,0-2.91,0,3.62,3.62,0,0,0-1.13.61,2.71,2.71,0,0,0-.74.91,2.47,2.47,0,0,0-.26,1.11,1.71,1.71,0,0,0,.55,1.33,5.05,5.05,0,0,0,1.38.86q.83.36,1.8.7a9.15,9.15,0,0,1,1.8.85A4.59,4.59,0,0,1,77,441.5a3.58,3.58,0,0,1,.55,2.07,6,6,0,0,1-1.89,4.37,6.91,6.91,0,0,1-2.2,1.37,7.7,7.7,0,0,1-2.88.51,7.15,7.15,0,0,1-3-.61,6.32,6.32,0,0,1-2.15-1.57l.78-1.21a1.09,1.09,0,0,1,.34-.35A.92.92,0,0,1,67,446a.87.87,0,0,1,.57.25c.19.17.43.35.71.56a4.38,4.38,0,0,0,2.71.81,4.38,4.38,0,0,0,1.57-.27,3.68,3.68,0,0,0,1.19-.71,3,3,0,0,0,.74-1,3.15,3.15,0,0,0,.26-1.27,1.91,1.91,0,0,0-.55-1.44,4.5,4.5,0,0,0-1.38-.89q-.83-.35-1.79-.67a9.07,9.07,0,0,1-1.79-.8,4.39,4.39,0,0,1-1.38-1.27,3.54,3.54,0,0,1-.55-2.08,5.5,5.5,0,0,1,.45-2.19,5.65,5.65,0,0,1,1.3-1.87,6.4,6.4,0,0,1,2.07-1.3,7.3,7.3,0,0,1,2.74-.49,7,7,0,0,1,2.85.54,6.58,6.58,0,0,1,2.12,1.46Z"/><path d="M94.59,435.44a4.86,4.86,0,0,1-.48,2.15,4.48,4.48,0,0,1-1.75,1.77,13.15,13.15,0,0,1-3.51,1.37,38.79,38.79,0,0,1-5.75.94c0,.13,0,.26,0,.38v.38a5.55,5.55,0,0,0,1,3.63,3.83,3.83,0,0,0,3.13,1.25,5.9,5.9,0,0,0,1.52-.18,6.5,6.5,0,0,0,1.19-.43,5.37,5.37,0,0,0,.92-.57l.74-.57q.34-.26.62-.43a1.06,1.06,0,0,1,.57-.18.77.77,0,0,1,.58.3l.78,1a16.51,16.51,0,0,1-1.76,1.6,10.32,10.32,0,0,1-1.76,1.11,8,8,0,0,1-1.89.65,10.46,10.46,0,0,1-2.12.2,7.09,7.09,0,0,1-2.77-.51,5.73,5.73,0,0,1-2.07-1.46,6.59,6.59,0,0,1-1.31-2.3,9.26,9.26,0,0,1-.46-3,13.19,13.19,0,0,1,.29-2.76,12.93,12.93,0,0,1,.85-2.62,11.91,11.91,0,0,1,1.37-2.31A9.19,9.19,0,0,1,84.36,433a8.69,8.69,0,0,1,2.29-1.21,8,8,0,0,1,2.69-.44,6.45,6.45,0,0,1,2.36.39,5,5,0,0,1,1.63,1,4,4,0,0,1,.95,1.33A3.55,3.55,0,0,1,94.59,435.44Zm-5.43-1.83a4.6,4.6,0,0,0-2.06.46,5.48,5.48,0,0,0-1.67,1.27,7.75,7.75,0,0,0-1.24,1.9,11.33,11.33,0,0,0-.8,2.35,34.53,34.53,0,0,0,4.38-.77,10.92,10.92,0,0,0,2.54-.94,2.45,2.45,0,0,0,1.45-2.31,1.78,1.78,0,0,0-.59-1.29,2.47,2.47,0,0,0-.81-.47A3.45,3.45,0,0,0,89.16,433.61Z"/><path d="M116.63,449.55H115a1,1,0,0,1-.84-.32,1.34,1.34,0,0,1-.22-.78l.32-3.6a15.15,15.15,0,0,1-1.37,2,9.48,9.48,0,0,1-1.56,1.56,6.84,6.84,0,0,1-1.73,1,5.14,5.14,0,0,1-1.88.35,4.42,4.42,0,0,1-1.93-.42,4,4,0,0,1-1.48-1.22,5.94,5.94,0,0,1-.95-2,9.83,9.83,0,0,1-.34-2.7,12.2,12.2,0,0,1,.4-3.11,12.66,12.66,0,0,1,2.9-5.34,11.88,11.88,0,0,1,2.3-2,10.92,10.92,0,0,1,2.72-1.28,10.24,10.24,0,0,1,3-.45,13.21,13.21,0,0,1,2.24.19,9.32,9.32,0,0,1,2.15.65Zm-7.73-2.38a3.13,3.13,0,0,0,1.7-.53,6.52,6.52,0,0,0,1.58-1.48,12.83,12.83,0,0,0,1.39-2.24,20.19,20.19,0,0,0,1.14-2.85l.76-6.07a1.23,1.23,0,0,0-.77-.32h-.75a6.24,6.24,0,0,0-2.06.34,7.38,7.38,0,0,0-1.86,1,8.28,8.28,0,0,0-1.58,1.48,9.6,9.6,0,0,0-1.21,1.88,10.68,10.68,0,0,0-.79,2.18,9.94,9.94,0,0,0-.28,2.38Q106.17,447.17,108.9,447.17Z"/><path d="M133.47,449.55a1,1,0,0,1-.84-.32,1.34,1.34,0,0,1-.22-.78l.34-3.74a14.63,14.63,0,0,1-1.47,2.09,10.63,10.63,0,0,1-1.67,1.6,7.42,7.42,0,0,1-1.83,1,5.34,5.34,0,0,1-1.92.36,4.22,4.22,0,0,1-3.57-1.68,8,8,0,0,1-1.27-4.87,14.29,14.29,0,0,1,.3-2.91,15,15,0,0,1,.86-2.78,13.58,13.58,0,0,1,1.35-2.47,10.32,10.32,0,0,1,1.75-2,7.89,7.89,0,0,1,2.1-1.31,6,6,0,0,1,2.38-.48,5.56,5.56,0,0,1,2.4.51,5.15,5.15,0,0,1,1.85,1.47l1.22-9.88h3.1l-3.23,26.12ZM127,447.26a3.27,3.27,0,0,0,1.71-.52,7.16,7.16,0,0,0,1.67-1.45,12.51,12.51,0,0,0,1.51-2.22,17.63,17.63,0,0,0,1.21-2.81l.58-4.75a3.76,3.76,0,0,0-1.61-1.33,4.9,4.9,0,0,0-1.9-.39,4.14,4.14,0,0,0-2.53.83,7.27,7.27,0,0,0-1.92,2.15,11.24,11.24,0,0,0-1.21,3,12.66,12.66,0,0,0-.43,3.21,5.66,5.66,0,0,0,.76,3.22A2.45,2.45,0,0,0,127,447.26Z"/><path d="M152.12,449.55a1,1,0,0,1-.84-.32,1.34,1.34,0,0,1-.22-.78l.34-3.74a14.63,14.63,0,0,1-1.47,2.09,10.63,10.63,0,0,1-1.67,1.6,7.42,7.42,0,0,1-1.83,1,5.34,5.34,0,0,1-1.92.36,4.22,4.22,0,0,1-3.57-1.68,8,8,0,0,1-1.27-4.87,14.29,14.29,0,0,1,.3-2.91,15,15,0,0,1,.86-2.78,13.58,13.58,0,0,1,1.35-2.47,10.32,10.32,0,0,1,1.75-2,7.89,7.89,0,0,1,2.1-1.31,6,6,0,0,1,2.38-.48,5.56,5.56,0,0,1,2.4.51,5.15,5.15,0,0,1,1.85,1.47l1.22-9.88H157l-3.23,26.12Zm-6.44-2.29a3.27,3.27,0,0,0,1.71-.52,7.16,7.16,0,0,0,1.67-1.45,12.51,12.51,0,0,0,1.51-2.22,17.63,17.63,0,0,0,1.21-2.81l.58-4.75a3.76,3.76,0,0,0-1.61-1.33,4.9,4.9,0,0,0-1.9-.39,4.14,4.14,0,0,0-2.53.83,7.27,7.27,0,0,0-1.92,2.15,11.24,11.24,0,0,0-1.21,3,12.66,12.66,0,0,0-.43,3.21,5.66,5.66,0,0,0,.76,3.22A2.45,2.45,0,0,0,145.69,447.26Z"/><path d="M181.08,431.94l-2.15,17.61h-3.12l1.9-15.32h-6.86L169,449l-.82,3.67a1.53,1.53,0,0,1-1.63,1.33h-1.24l2.43-19.72-1.76-.21q-.71-.09-.71-.71l.12-1.4h2.62l.12-1a9.62,9.62,0,0,1,.84-3,7.35,7.35,0,0,1,1.73-2.34,7.73,7.73,0,0,1,2.57-1.52,9.89,9.89,0,0,1,3.39-.54l.67,0,.69.07.66.11a3.49,3.49,0,0,1,.54.15l-.3,1.59a.36.36,0,0,1-.24.27,1.56,1.56,0,0,1-.49.06h-.94a9.11,9.11,0,0,0-2.55.32,5,5,0,0,0-1.83,1,4.44,4.44,0,0,0-1.19,1.61,8,8,0,0,0-.59,2.3l-.11.94Z"/><path d="M198.54,435.44a4.86,4.86,0,0,1-.48,2.15,4.48,4.48,0,0,1-1.75,1.77,13.15,13.15,0,0,1-3.51,1.37,38.79,38.79,0,0,1-5.75.94c0,.13,0,.26,0,.38v.38a5.55,5.55,0,0,0,1,3.63,3.83,3.83,0,0,0,3.13,1.25,5.9,5.9,0,0,0,1.52-.18,6.5,6.5,0,0,0,1.19-.43,5.37,5.37,0,0,0,.92-.57l.74-.57q.34-.26.62-.43a1.06,1.06,0,0,1,.57-.18.77.77,0,0,1,.58.3l.78,1a16.51,16.51,0,0,1-1.76,1.6,10.32,10.32,0,0,1-1.76,1.11,8,8,0,0,1-1.89.65,10.46,10.46,0,0,1-2.12.2,7.09,7.09,0,0,1-2.77-.51,5.73,5.73,0,0,1-2.07-1.46,6.59,6.59,0,0,1-1.31-2.3,9.26,9.26,0,0,1-.46-3,13.19,13.19,0,0,1,.29-2.76,12.93,12.93,0,0,1,.85-2.62,11.91,11.91,0,0,1,1.37-2.31,9.19,9.19,0,0,1,1.84-1.83,8.69,8.69,0,0,1,2.29-1.21,8,8,0,0,1,2.69-.44,6.45,6.45,0,0,1,2.36.39,5,5,0,0,1,1.63,1,4,4,0,0,1,.95,1.33A3.55,3.55,0,0,1,198.54,435.44Zm-5.43-1.83a4.6,4.6,0,0,0-2.06.46,5.48,5.48,0,0,0-1.67,1.27,7.75,7.75,0,0,0-1.24,1.9,11.33,11.33,0,0,0-.8,2.35,34.53,34.53,0,0,0,4.38-.77,10.92,10.92,0,0,0,2.54-.94,2.45,2.45,0,0,0,1.45-2.31,1.78,1.78,0,0,0-.59-1.29,2.47,2.47,0,0,0-.81-.47A3.45,3.45,0,0,0,193.12,433.61Z"/><path d="M200.83,449.55,204,423.43h3.1l-3.17,26.12Z"/><path d="M221.1,449.55a1,1,0,0,1-.84-.32,1.34,1.34,0,0,1-.22-.78l.34-3.74a14.63,14.63,0,0,1-1.47,2.09,10.63,10.63,0,0,1-1.67,1.6,7.42,7.42,0,0,1-1.83,1,5.34,5.34,0,0,1-1.92.36,4.22,4.22,0,0,1-3.57-1.68,8,8,0,0,1-1.27-4.87,14.29,14.29,0,0,1,.3-2.91,15,15,0,0,1,.86-2.78,13.58,13.58,0,0,1,1.35-2.47,10.32,10.32,0,0,1,1.75-2,7.89,7.89,0,0,1,2.1-1.31,6,6,0,0,1,2.38-.48,5.56,5.56,0,0,1,2.4.51,5.15,5.15,0,0,1,1.85,1.47l1.22-9.88H226l-3.23,26.12Zm-6.44-2.29a3.27,3.27,0,0,0,1.71-.52,7.16,7.16,0,0,0,1.67-1.45,12.51,12.51,0,0,0,1.51-2.22,17.63,17.63,0,0,0,1.21-2.81l.58-4.75a3.76,3.76,0,0,0-1.61-1.33,4.9,4.9,0,0,0-1.9-.39,4.14,4.14,0,0,0-2.53.83,7.27,7.27,0,0,0-1.92,2.15,11.24,11.24,0,0,0-1.21,3,12.66,12.66,0,0,0-.43,3.21,5.66,5.66,0,0,0,.76,3.22A2.45,2.45,0,0,0,214.66,447.26Z"/><path d="M239.17,434.46a1.15,1.15,0,0,1-.28.31.61.61,0,0,1-.35.1,1,1,0,0,1-.54-.2c-.19-.13-.43-.27-.71-.43a5.9,5.9,0,0,0-1-.44,5.07,5.07,0,0,0-2.91,0,3.62,3.62,0,0,0-1.13.61,2.71,2.71,0,0,0-.74.91,2.47,2.47,0,0,0-.26,1.11,1.71,1.71,0,0,0,.55,1.33,5.05,5.05,0,0,0,1.38.86q.83.36,1.8.7a9.15,9.15,0,0,1,1.8.85,4.59,4.59,0,0,1,1.38,1.31,3.58,3.58,0,0,1,.55,2.07,6,6,0,0,1-1.89,4.37,6.91,6.91,0,0,1-2.2,1.37,7.7,7.7,0,0,1-2.88.51,7.15,7.15,0,0,1-3-.61,6.32,6.32,0,0,1-2.15-1.57l.78-1.21a1.09,1.09,0,0,1,.34-.35.92.92,0,0,1,.5-.12.87.87,0,0,1,.57.25c.19.17.43.35.71.56a4.38,4.38,0,0,0,2.71.81,4.38,4.38,0,0,0,1.57-.27,3.68,3.68,0,0,0,1.19-.71,3,3,0,0,0,.74-1,3.15,3.15,0,0,0,.26-1.27,1.91,1.91,0,0,0-.55-1.44A4.5,4.5,0,0,0,234,442q-.83-.35-1.79-.67a9.07,9.07,0,0,1-1.79-.8,4.39,4.39,0,0,1-1.38-1.27,3.54,3.54,0,0,1-.55-2.08,5.5,5.5,0,0,1,.45-2.19,5.65,5.65,0,0,1,1.3-1.87,6.4,6.4,0,0,1,2.07-1.3,7.3,7.3,0,0,1,2.74-.49,7,7,0,0,1,2.85.54,6.58,6.58,0,0,1,2.12,1.46Z"/><path d="M254.65,449.8a7,7,0,0,1-2.7-.5,5.93,5.93,0,0,1-2.11-1.46,6.76,6.76,0,0,1-1.38-2.34,9.31,9.31,0,0,1-.5-3.16,12.72,12.72,0,0,1,.71-4.27,11.61,11.61,0,0,1,1.94-3.51,9.19,9.19,0,0,1,2.91-2.38,7.76,7.76,0,0,1,3.63-.87,7,7,0,0,1,2.7.51,5.93,5.93,0,0,1,2.11,1.46,6.74,6.74,0,0,1,1.38,2.35,9.33,9.33,0,0,1,.5,3.15,12.66,12.66,0,0,1-.71,4.26,11.6,11.6,0,0,1-1.94,3.51,9.28,9.28,0,0,1-2.92,2.38A7.71,7.71,0,0,1,254.65,449.8Zm.28-2.46a4.16,4.16,0,0,0,2.36-.71,6.21,6.21,0,0,0,1.81-1.89,9.71,9.71,0,0,0,1.15-2.72,12.59,12.59,0,0,0,.41-3.23,6,6,0,0,0-1-3.74,3.35,3.35,0,0,0-2.82-1.26,4.18,4.18,0,0,0-2.37.7,6.16,6.16,0,0,0-1.8,1.88,9.71,9.71,0,0,0-1.15,2.72,12.59,12.59,0,0,0-.41,3.23,6.12,6.12,0,0,0,1,3.75A3.34,3.34,0,0,0,254.93,447.33Z"/><path d="M266.07,449.55l2.15-18h1.58a.94.94,0,0,1,1.06,1.06l-.27,3.48a11.14,11.14,0,0,1,3.24-3.58,6.62,6.62,0,0,1,3.73-1.21,3.81,3.81,0,0,1,3.11,1.35,6.07,6.07,0,0,1,1.11,3.94c0,.24,0,.48,0,.73s0,.51-.07.78l-1.35,11.44h-3.16l1.35-11.44q0-.35.06-.68c0-.22,0-.43,0-.63a3.51,3.51,0,0,0-.54-2.15,2,2,0,0,0-1.69-.7,3.7,3.7,0,0,0-1.73.46,6.76,6.76,0,0,0-1.69,1.3,10.62,10.62,0,0,0-1.52,2,14.36,14.36,0,0,0-1.2,2.67l-1,9.13Z"/><path d="M293.12,446.16c0-.07,0-.16,0-.27s0-.28,0-.49,0-.49.08-.83.09-.79.16-1.35l1.12-9h-2a.55.55,0,0,1-.38-.13.53.53,0,0,1-.15-.42s0-.11,0-.21l0-.36.05-.42q0-.21,0-.41l2.77-.37,1.33-5.55a.85.85,0,0,1,.27-.43.71.71,0,0,1,.48-.17h1.67l-.78,6.19h4.72l-.27,2.29h-4.73l-1.08,8.83q-.09.73-.13,1.17l-.07.71,0,.37c0,.07,0,.13,0,.16a1.87,1.87,0,0,0,.42,1.34,1.51,1.51,0,0,0,1.14.43,2.31,2.31,0,0,0,.82-.13,3.4,3.4,0,0,0,.61-.29l.43-.29a.55.55,0,0,1,.32-.13.32.32,0,0,1,.22.07.9.9,0,0,1,.17.23l.66,1.51a6.42,6.42,0,0,1-2,1.2,6.07,6.07,0,0,1-2.23.43,3.79,3.79,0,0,1-2.71-.94A3.69,3.69,0,0,1,293.12,446.16Z"/><path d="M303.85,449.55,307,423.43h3.16l-1.47,12.13a10.61,10.61,0,0,1,3.11-3.17,6.52,6.52,0,0,1,3.5-1.07,3.82,3.82,0,0,1,3.14,1.35,6.07,6.07,0,0,1,1.1,3.92c0,.24,0,.48,0,.74s0,.52-.07.79l-1.35,11.44H315l1.35-11.44q0-.35.06-.68t0-.63a3.55,3.55,0,0,0-.54-2.16,2,2,0,0,0-1.71-.71,3.57,3.57,0,0,0-1.64.43,6.65,6.65,0,0,0-1.64,1.23,10.42,10.42,0,0,0-1.49,1.92,14.3,14.3,0,0,0-1.21,2.51L307,449.55Z"/><path d="M336.87,435.44a4.86,4.86,0,0,1-.48,2.15,4.48,4.48,0,0,1-1.75,1.77,13.15,13.15,0,0,1-3.51,1.37,38.79,38.79,0,0,1-5.75.94c0,.13,0,.26,0,.38v.38a5.55,5.55,0,0,0,1,3.63,3.83,3.83,0,0,0,3.13,1.25,5.9,5.9,0,0,0,1.52-.18,6.5,6.5,0,0,0,1.19-.43,5.37,5.37,0,0,0,.92-.57l.74-.57q.34-.26.62-.43a1.06,1.06,0,0,1,.57-.18.77.77,0,0,1,.58.3l.78,1a16.51,16.51,0,0,1-1.76,1.6,10.32,10.32,0,0,1-1.76,1.11,8,8,0,0,1-1.89.65,10.46,10.46,0,0,1-2.12.2,7.09,7.09,0,0,1-2.77-.51,5.73,5.73,0,0,1-2.07-1.46,6.59,6.59,0,0,1-1.31-2.3,9.26,9.26,0,0,1-.46-3,13.19,13.19,0,0,1,.29-2.76,12.93,12.93,0,0,1,.85-2.62,11.91,11.91,0,0,1,1.37-2.31,9.19,9.19,0,0,1,1.84-1.83,8.69,8.69,0,0,1,2.29-1.21,8,8,0,0,1,2.69-.44,6.45,6.45,0,0,1,2.36.39,5,5,0,0,1,1.63,1,4,4,0,0,1,.95,1.33A3.55,3.55,0,0,1,336.87,435.44Zm-5.43-1.83a4.6,4.6,0,0,0-2.06.46,5.48,5.48,0,0,0-1.67,1.27,7.75,7.75,0,0,0-1.24,1.9,11.33,11.33,0,0,0-.8,2.35,34.53,34.53,0,0,0,4.38-.77,10.92,10.92,0,0,0,2.54-.94,2.45,2.45,0,0,0,1.45-2.31,1.78,1.78,0,0,0-.59-1.29,2.47,2.47,0,0,0-.81-.47A3.45,3.45,0,0,0,331.44,433.61Z"/><path d="M346,449.55l3.17-26.12h3.1l-3.17,26.12Z"/><path d="M368.48,435.44a4.86,4.86,0,0,1-.48,2.15,4.48,4.48,0,0,1-1.75,1.77,13.15,13.15,0,0,1-3.51,1.37,38.79,38.79,0,0,1-5.75.94c0,.13,0,.26,0,.38v.38a5.55,5.55,0,0,0,1,3.63,3.83,3.83,0,0,0,3.13,1.25,5.9,5.9,0,0,0,1.52-.18,6.5,6.5,0,0,0,1.19-.43,5.37,5.37,0,0,0,.92-.57l.74-.57q.34-.26.62-.43a1.06,1.06,0,0,1,.57-.18.77.77,0,0,1,.58.3l.78,1a16.51,16.51,0,0,1-1.76,1.6,10.32,10.32,0,0,1-1.76,1.11,8,8,0,0,1-1.89.65,10.46,10.46,0,0,1-2.12.2,7.09,7.09,0,0,1-2.77-.51,5.73,5.73,0,0,1-2.07-1.46,6.59,6.59,0,0,1-1.31-2.3,9.26,9.26,0,0,1-.46-3,13.19,13.19,0,0,1,.29-2.76,12.93,12.93,0,0,1,.85-2.62,11.91,11.91,0,0,1,1.37-2.31,9.19,9.19,0,0,1,1.84-1.83,8.69,8.69,0,0,1,2.29-1.21,8,8,0,0,1,2.69-.44,6.45,6.45,0,0,1,2.36.39,5,5,0,0,1,1.63,1,4,4,0,0,1,.95,1.33A3.55,3.55,0,0,1,368.48,435.44Zm-5.43-1.83a4.6,4.6,0,0,0-2.06.46,5.48,5.48,0,0,0-1.67,1.27,7.75,7.75,0,0,0-1.24,1.9,11.33,11.33,0,0,0-.8,2.35,34.53,34.53,0,0,0,4.38-.77,10.92,10.92,0,0,0,2.54-.94,2.45,2.45,0,0,0,1.45-2.31,1.78,1.78,0,0,0-.59-1.29,2.47,2.47,0,0,0-.81-.47A3.45,3.45,0,0,0,363.06,433.61Z"/><path d="M375.84,434.21,374.05,449l-.82,3.67A1.53,1.53,0,0,1,371.6,454h-1.24l2.39-19.7L371,434a1.21,1.21,0,0,1-.48-.25.59.59,0,0,1-.18-.46l.14-1.38H373l.21-1.74a8.81,8.81,0,0,1,.77-2.74,6.74,6.74,0,0,1,1.45-2,6,6,0,0,1,2-1.25,6.8,6.8,0,0,1,2.42-.43,5.35,5.35,0,0,1,2,.36l-.3,1.63a.34.34,0,0,1-.24.31,1.85,1.85,0,0,1-.52.06h-.74a4.33,4.33,0,0,0-1.41.22,3,3,0,0,0-1.14.72,4,4,0,0,0-.83,1.29,7.28,7.28,0,0,0-.48,1.94l-.21,1.64h4.49l-.3,2.27Z"/><path d="M382.76,446.16c0-.07,0-.16,0-.27s0-.28,0-.49,0-.49.08-.83.09-.79.16-1.35l1.12-9h-2a.55.55,0,0,1-.38-.13.53.53,0,0,1-.15-.42s0-.11,0-.21l0-.36.05-.42q0-.21,0-.41l2.77-.37,1.33-5.55a.85.85,0,0,1,.27-.43.71.71,0,0,1,.48-.17h1.67l-.78,6.19h4.72l-.27,2.29h-4.73l-1.08,8.83q-.09.73-.13,1.17l-.07.71,0,.37c0,.07,0,.13,0,.16a1.87,1.87,0,0,0,.42,1.34,1.51,1.51,0,0,0,1.14.43,2.31,2.31,0,0,0,.82-.13,3.4,3.4,0,0,0,.61-.29l.43-.29a.55.55,0,0,1,.32-.13.32.32,0,0,1,.22.07.9.9,0,0,1,.17.23l.66,1.51a6.42,6.42,0,0,1-2,1.2,6.07,6.07,0,0,1-2.23.43,3.79,3.79,0,0,1-2.71-.94A3.69,3.69,0,0,1,382.76,446.16Z"/><path d="M392.88,447.6a2.24,2.24,0,0,1,.17-.87,2.14,2.14,0,0,1,.47-.71,2.31,2.31,0,0,1,.7-.48,2.15,2.15,0,0,1,.88-.18,2.11,2.11,0,0,1,.86.18,2.32,2.32,0,0,1,.7.48,2.29,2.29,0,0,1,.48.71,2.16,2.16,0,0,1,.18.87,2.13,2.13,0,0,1-.18.88,2.32,2.32,0,0,1-.48.7,2.18,2.18,0,0,1-1.56.64,2.23,2.23,0,0,1-.88-.17,2.18,2.18,0,0,1-1.17-1.17A2.21,2.21,0,0,1,392.88,447.6Z"/></g></g></g></svg>