<svg xmlns="http://www.w3.org/2000/svg" viewBox="0 0 392.8 530.52"><defs><style>.cls-1{fill:none;}.cls-1,.cls-4{stroke:#4d4d4d;stroke-miterlimit:10;stroke-width:7px;stroke-dasharray:12;opacity:0.44;}.cls-2{opacity:0.66;}.cls-3{opacity:0.54;}.cls-4{fill:#e6e6e6;}</style></defs><title>Asset 21</title><g id="Layer_2" data-name="Layer 2"><g id="Layer_1-2" data-name="Layer 1"><rect class="cls-1" x="17.44" y="3.5" width="348" height="388" rx="44.75" ry="44.75"/><g class="cls-2"><path d="M83.37,443.38v5.14H68v9.62H80.11v5H68v9.82H83.37v5.16H61.48v-34.7Z"/><path d="M88.63,478.08V453.46h3.62a1.46,1.46,0,0,1,1.51,1.08l.38,1.82A14,14,0,0,1,95.5,455,8.73,8.73,0,0,1,97,454a8.18,8.18,0,0,1,1.73-.68,7.69,7.69,0,0,1,2-.25,5.75,5.75,0,0,1,3.83,1.26,7.59,7.59,0,0,1,2.24,3.35,7.51,7.51,0,0,1,1.44-2.1,7.89,7.89,0,0,1,1.9-1.43,8.75,8.75,0,0,1,2.2-.82,10.55,10.55,0,0,1,2.34-.26,9.83,9.83,0,0,1,3.62.62,6.94,6.94,0,0,1,2.66,1.82,8.05,8.05,0,0,1,1.64,2.93,12.78,12.78,0,0,1,.56,4v15.67h-5.93V462.41a5.27,5.27,0,0,0-1-3.54,3.79,3.79,0,0,0-3-1.19,4.51,4.51,0,0,0-1.69.31,4,4,0,0,0-1.37.9,4.11,4.11,0,0,0-.92,1.48,5.72,5.72,0,0,0-.34,2v15.67h-6V462.41a5.37,5.37,0,0,0-1-3.6A3.72,3.72,0,0,0,99,457.68a4.75,4.75,0,0,0-2.39.64,8,8,0,0,0-2.08,1.74v18Z"/><path d="M129,486.13V453.46h3.62a1.78,1.78,0,0,1,1,.26,1.24,1.24,0,0,1,.53.82l.48,2.28a12.44,12.44,0,0,1,3.42-2.76A9.3,9.3,0,0,1,142.6,453a8.08,8.08,0,0,1,3.68.84,8.28,8.28,0,0,1,2.88,2.44,11.7,11.7,0,0,1,1.87,3.94,19.83,19.83,0,0,1,.66,5.36,16.87,16.87,0,0,1-.74,5.11,12.52,12.52,0,0,1-2.12,4.08,9.81,9.81,0,0,1-3.34,2.7,9.71,9.71,0,0,1-4.38,1,8.81,8.81,0,0,1-3.54-.64A8.66,8.66,0,0,1,135,476v10.08Zm11.52-28.44a6.06,6.06,0,0,0-3.16.78,9.13,9.13,0,0,0-2.44,2.2v11a5.64,5.64,0,0,0,2.2,1.74,6.61,6.61,0,0,0,2.56.49,5.75,5.75,0,0,0,2.44-.5,4.72,4.72,0,0,0,1.85-1.54,7.6,7.6,0,0,0,1.16-2.6,14.86,14.86,0,0,0,.41-3.71,16.49,16.49,0,0,0-.35-3.66,7.08,7.08,0,0,0-1-2.44,4,4,0,0,0-1.57-1.37A4.9,4.9,0,0,0,140.56,457.68Z"/><path d="M164.27,478.47a6.48,6.48,0,0,1-4.92-1.81,7,7,0,0,1-1.73-5V457.9h-2.5a1.14,1.14,0,0,1-1.18-1.25V454.3l4-.65,1.25-6.72a1.19,1.19,0,0,1,.44-.74,1.41,1.41,0,0,1,.88-.26h3.07v7.75H170v4.22h-6.48v13.34a2.61,2.61,0,0,0,.58,1.8,2,2,0,0,0,1.54.65,2.77,2.77,0,0,0,.92-.13,4.94,4.94,0,0,0,.65-.28l.49-.28a.82.82,0,0,1,.43-.13.68.68,0,0,1,.43.13,2,2,0,0,1,.36.4l1.78,2.88a9,9,0,0,1-3,1.63A11.07,11.07,0,0,1,164.27,478.47Z"/><path d="M183.5,484.85a2.3,2.3,0,0,1-.68.95,2.09,2.09,0,0,1-1.28.32h-4.42l4.61-9.86-10-22.8h5.18a1.63,1.63,0,0,1,1.1.34,2.23,2.23,0,0,1,.58.77l5.26,12.77a11.34,11.34,0,0,1,.46,1.3q.19.67.34,1.34.19-.7.42-1.34t.49-1.32l4.94-12.74a1.74,1.74,0,0,1,.64-.79,1.69,1.69,0,0,1,1-.31h4.75Z"/><path d="M210.69,478.08V457.92l-2.14-.34a2.28,2.28,0,0,1-1.12-.48,1.26,1.26,0,0,1-.42-1v-2.42h3.67v-1.82a10.63,10.63,0,0,1,.64-3.79,7.68,7.68,0,0,1,4.72-4.66,11.11,11.11,0,0,1,3.84-.62,10.62,10.62,0,0,1,3.17.46l-.12,3a.86.86,0,0,1-.65.86,5.18,5.18,0,0,1-1.39.17,7.13,7.13,0,0,0-1.88.23,3.19,3.19,0,0,0-1.4.79,3.6,3.6,0,0,0-.88,1.49,7.51,7.51,0,0,0-.3,2.29v1.63h6.41v4.22h-6.22v20.18Z"/><path d="M237,453.08a13.5,13.5,0,0,1,5,.89,10.79,10.79,0,0,1,3.83,2.52,11.15,11.15,0,0,1,2.45,4,16.49,16.49,0,0,1,0,10.54,11.39,11.39,0,0,1-2.45,4,10.62,10.62,0,0,1-3.83,2.54,14.57,14.57,0,0,1-10,0A10.73,10.73,0,0,1,228.1,475a11.45,11.45,0,0,1-2.47-4,16.28,16.28,0,0,1,0-10.54,11.21,11.21,0,0,1,2.47-4A10.89,10.89,0,0,1,232,454,13.59,13.59,0,0,1,237,453.08Zm0,20.81a5.21,5.21,0,0,0,4.55-2.06,10.35,10.35,0,0,0,1.48-6,10.46,10.46,0,0,0-1.48-6.07,5.19,5.19,0,0,0-4.55-2.09,5.26,5.26,0,0,0-4.61,2.1,10.41,10.41,0,0,0-1.49,6.06,10.29,10.29,0,0,0,1.49,6A5.28,5.28,0,0,0,237,473.88Z"/><path d="M253.74,478.08V453.46h3.48a1.87,1.87,0,0,1,1.27.34,1.94,1.94,0,0,1,.48,1.15l.36,3a11.69,11.69,0,0,1,3.1-3.6,6.51,6.51,0,0,1,4-1.32,5.16,5.16,0,0,1,3,.84l-.77,4.44a.92.92,0,0,1-.31.61,1.06,1.06,0,0,1-.65.18,4,4,0,0,1-1-.17,6.58,6.58,0,0,0-1.66-.17,5,5,0,0,0-3.17,1,7.87,7.87,0,0,0-2.23,3v15.34Z"/><path d="M273.35,478.08V453.46H277a1.46,1.46,0,0,1,1.51,1.08l.38,1.82a14,14,0,0,1,1.36-1.32,8.73,8.73,0,0,1,1.51-1,8.18,8.18,0,0,1,1.73-.68,7.69,7.69,0,0,1,2-.25,5.75,5.75,0,0,1,3.83,1.26,7.59,7.59,0,0,1,2.24,3.35,7.51,7.51,0,0,1,1.44-2.1,7.89,7.89,0,0,1,1.9-1.43,8.75,8.75,0,0,1,2.2-.82,10.55,10.55,0,0,1,2.34-.26,9.83,9.83,0,0,1,3.62.62,6.94,6.94,0,0,1,2.66,1.82,8.05,8.05,0,0,1,1.64,2.93,12.78,12.78,0,0,1,.56,4v15.67H302V462.41a5.27,5.27,0,0,0-1-3.54,3.79,3.79,0,0,0-3-1.19,4.51,4.51,0,0,0-1.69.31,4,4,0,0,0-1.37.9,4.11,4.11,0,0,0-.92,1.48,5.72,5.72,0,0,0-.34,2v15.67h-6V462.41a5.37,5.37,0,0,0-1-3.6,3.72,3.72,0,0,0-2.94-1.13,4.75,4.75,0,0,0-2.39.64,8,8,0,0,0-2.08,1.74v18Z"/><path d="M315.62,474.82a3.68,3.68,0,0,1,.28-1.42,3.38,3.38,0,0,1,.77-1.15,3.76,3.76,0,0,1,1.16-.77,3.61,3.61,0,0,1,1.44-.29,3.55,3.55,0,0,1,1.42.29,3.52,3.52,0,0,1,1.92,1.92,3.65,3.65,0,0,1,0,2.84,3.67,3.67,0,0,1-.77,1.14,3.48,3.48,0,0,1-1.15.76,3.68,3.68,0,0,1-1.42.28,3.74,3.74,0,0,1-1.44-.28,3.6,3.6,0,0,1-1.16-.76,3.39,3.39,0,0,1-.77-1.14A3.65,3.65,0,0,1,315.62,474.82Zm6.5-31.44v13.73a41.67,41.67,0,0,1-.22,4.28q-.22,2.1-.58,4.45h-4q-.36-2.35-.58-4.45a42,42,0,0,1-.22-4.28V443.38Z"/></g><path class="cls-3" d="M4.47,516.54,3.3,526.08H0l3.1-25.41h7a11.51,11.51,0,0,1,3.51.48,6.53,6.53,0,0,1,2.46,1.37,5.56,5.56,0,0,1,1.44,2.13,7.62,7.62,0,0,1,.48,2.77,10,10,0,0,1-.66,3.68A8,8,0,0,1,15.44,514a8.8,8.8,0,0,1-3.08,1.89,12,12,0,0,1-4.19.68ZM6.1,503.28,4.79,513.92H8.48a7.12,7.12,0,0,0,2.66-.46,5.38,5.38,0,0,0,1.93-1.29,5.52,5.52,0,0,0,1.19-2,7.35,7.35,0,0,0,.41-2.49,5.29,5.29,0,0,0-.3-1.84,3.65,3.65,0,0,0-.9-1.39,4,4,0,0,0-1.52-.89,6.76,6.76,0,0,0-2.15-.31Z"/><path class="cls-3" d="M19.54,526.08,22.71,500h3.1l-3.17,26.12Z"/><path class="cls-3" d="M42,512a4.86,4.86,0,0,1-.48,2.15,4.48,4.48,0,0,1-1.75,1.77,13.15,13.15,0,0,1-3.51,1.37,38.79,38.79,0,0,1-5.75.94c0,.13,0,.26,0,.38V519a5.55,5.55,0,0,0,1,3.63,3.83,3.83,0,0,0,3.13,1.25,5.9,5.9,0,0,0,1.52-.18,6.5,6.5,0,0,0,1.19-.43,5.37,5.37,0,0,0,.92-.57l.74-.57q.34-.26.62-.43a1.06,1.06,0,0,1,.57-.18.77.77,0,0,1,.58.3l.78,1a16.51,16.51,0,0,1-1.76,1.6,10.32,10.32,0,0,1-1.76,1.11,8,8,0,0,1-1.89.65,10.46,10.46,0,0,1-2.12.2,7.09,7.09,0,0,1-2.77-.51,5.73,5.73,0,0,1-2.07-1.46,6.59,6.59,0,0,1-1.31-2.3,9.26,9.26,0,0,1-.46-3,13.19,13.19,0,0,1,.29-2.76,12.93,12.93,0,0,1,.85-2.62A11.91,11.91,0,0,1,30,511.37a9.19,9.19,0,0,1,1.84-1.83,8.69,8.69,0,0,1,2.29-1.21,8,8,0,0,1,2.69-.44,6.45,6.45,0,0,1,2.36.39,5,5,0,0,1,1.63,1,4,4,0,0,1,.95,1.33A3.55,3.55,0,0,1,42,512Zm-5.43-1.83a4.6,4.6,0,0,0-2.06.46,5.48,5.48,0,0,0-1.67,1.27,7.75,7.75,0,0,0-1.24,1.9,11.33,11.33,0,0,0-.8,2.35,34.53,34.53,0,0,0,4.38-.77,10.92,10.92,0,0,0,2.54-.94,2.45,2.45,0,0,0,1.45-2.31,1.78,1.78,0,0,0-.59-1.29,2.47,2.47,0,0,0-.81-.47A3.45,3.45,0,0,0,36.6,510.14Z"/><path class="cls-3" d="M57.22,526.08H55.59a1,1,0,0,1-.84-.32,1.34,1.34,0,0,1-.22-.78l.32-3.6a15.15,15.15,0,0,1-1.37,2A9.48,9.48,0,0,1,51.91,525a6.84,6.84,0,0,1-1.73,1,5.14,5.14,0,0,1-1.88.35,4.42,4.42,0,0,1-1.93-.42,4,4,0,0,1-1.48-1.22,5.94,5.94,0,0,1-.95-2,9.83,9.83,0,0,1-.34-2.7,12.2,12.2,0,0,1,.4-3.11,12.66,12.66,0,0,1,2.9-5.34,11.88,11.88,0,0,1,2.3-2,10.92,10.92,0,0,1,2.72-1.28,10.24,10.24,0,0,1,3-.45,13.21,13.21,0,0,1,2.24.19,9.32,9.32,0,0,1,2.15.65Zm-7.73-2.38a3.13,3.13,0,0,0,1.7-.53,6.52,6.52,0,0,0,1.58-1.48,12.83,12.83,0,0,0,1.39-2.24,20.19,20.19,0,0,0,1.14-2.85l.76-6.07a1.23,1.23,0,0,0-.77-.32h-.75a6.24,6.24,0,0,0-2.06.34,7.38,7.38,0,0,0-1.86,1A8.28,8.28,0,0,0,49,513a9.6,9.6,0,0,0-1.21,1.88,10.68,10.68,0,0,0-.79,2.18,9.94,9.94,0,0,0-.28,2.38Q46.76,523.71,49.49,523.71Z"/><path class="cls-3" d="M73.48,511a1.15,1.15,0,0,1-.28.31.61.61,0,0,1-.35.1,1,1,0,0,1-.54-.2c-.19-.13-.43-.27-.71-.43a5.9,5.9,0,0,0-1-.44,5.07,5.07,0,0,0-2.91,0,3.62,3.62,0,0,0-1.13.61,2.71,2.71,0,0,0-.74.91,2.47,2.47,0,0,0-.26,1.11,1.71,1.71,0,0,0,.55,1.33,5.05,5.05,0,0,0,1.38.86q.83.36,1.8.7a9.15,9.15,0,0,1,1.8.85A4.59,4.59,0,0,1,72.45,518a3.58,3.58,0,0,1,.55,2.07,6,6,0,0,1-1.89,4.37,6.91,6.91,0,0,1-2.2,1.37,7.7,7.7,0,0,1-2.88.51,7.15,7.15,0,0,1-3-.61,6.32,6.32,0,0,1-2.15-1.57l.78-1.21a1.09,1.09,0,0,1,.34-.35.92.92,0,0,1,.5-.12.87.87,0,0,1,.57.25c.19.17.43.35.71.56a4.38,4.38,0,0,0,2.71.81,4.38,4.38,0,0,0,1.57-.27,3.68,3.68,0,0,0,1.19-.71,3,3,0,0,0,.74-1,3.15,3.15,0,0,0,.26-1.27,1.91,1.91,0,0,0-.55-1.44,4.5,4.5,0,0,0-1.38-.89q-.83-.35-1.79-.67a9.07,9.07,0,0,1-1.79-.8,4.39,4.39,0,0,1-1.38-1.27,3.54,3.54,0,0,1-.55-2.08,5.5,5.5,0,0,1,.45-2.19,5.65,5.65,0,0,1,1.3-1.87,6.4,6.4,0,0,1,2.07-1.3,7.3,7.3,0,0,1,2.74-.49,7,7,0,0,1,2.85.54,6.58,6.58,0,0,1,2.12,1.46Z"/><path class="cls-3" d="M90.08,512a4.86,4.86,0,0,1-.48,2.15,4.48,4.48,0,0,1-1.75,1.77,13.15,13.15,0,0,1-3.51,1.37,38.79,38.79,0,0,1-5.75.94c0,.13,0,.26,0,.38V519a5.55,5.55,0,0,0,1,3.63,3.83,3.83,0,0,0,3.13,1.25,5.9,5.9,0,0,0,1.52-.18,6.5,6.5,0,0,0,1.19-.43,5.37,5.37,0,0,0,.92-.57l.74-.57q.34-.26.62-.43a1.06,1.06,0,0,1,.57-.18.77.77,0,0,1,.58.3l.78,1a16.51,16.51,0,0,1-1.76,1.6,10.32,10.32,0,0,1-1.76,1.11,8,8,0,0,1-1.89.65,10.46,10.46,0,0,1-2.12.2,7.09,7.09,0,0,1-2.77-.51,5.73,5.73,0,0,1-2.07-1.46,6.59,6.59,0,0,1-1.31-2.3,9.26,9.26,0,0,1-.46-3,13.19,13.19,0,0,1,.29-2.76,12.93,12.93,0,0,1,.85-2.62A11.91,11.91,0,0,1,78,511.37a9.19,9.19,0,0,1,1.84-1.83,8.69,8.69,0,0,1,2.29-1.21,8,8,0,0,1,2.69-.44,6.45,6.45,0,0,1,2.36.39,5,5,0,0,1,1.63,1,4,4,0,0,1,.95,1.33A3.55,3.55,0,0,1,90.08,512Zm-5.43-1.83a4.6,4.6,0,0,0-2.06.46,5.48,5.48,0,0,0-1.67,1.27,7.75,7.75,0,0,0-1.24,1.9,11.33,11.33,0,0,0-.8,2.35,34.53,34.53,0,0,0,4.38-.77,10.92,10.92,0,0,0,2.54-.94,2.45,2.45,0,0,0,1.45-2.31,1.78,1.78,0,0,0-.59-1.29,2.47,2.47,0,0,0-.81-.47A3.45,3.45,0,0,0,84.65,510.14Z"/><path class="cls-3" d="M112.12,526.08h-1.63a1,1,0,0,1-.84-.32,1.34,1.34,0,0,1-.22-.78l.32-3.6a15.15,15.15,0,0,1-1.37,2,9.48,9.48,0,0,1-1.56,1.56,6.84,6.84,0,0,1-1.73,1,5.14,5.14,0,0,1-1.88.35,4.42,4.42,0,0,1-1.93-.42,4,4,0,0,1-1.48-1.22,5.94,5.94,0,0,1-.95-2,9.83,9.83,0,0,1-.34-2.7,12.2,12.2,0,0,1,.4-3.11,12.66,12.66,0,0,1,2.9-5.34,11.88,11.88,0,0,1,2.3-2,10.92,10.92,0,0,1,2.72-1.28,10.24,10.24,0,0,1,3-.45,13.21,13.21,0,0,1,2.24.19,9.32,9.32,0,0,1,2.15.65Zm-7.73-2.38a3.13,3.13,0,0,0,1.7-.53,6.52,6.52,0,0,0,1.58-1.48,12.83,12.83,0,0,0,1.39-2.24,20.19,20.19,0,0,0,1.14-2.85l.76-6.07a1.23,1.23,0,0,0-.77-.32h-.75a6.24,6.24,0,0,0-2.06.34,7.38,7.38,0,0,0-1.86,1,8.28,8.28,0,0,0-1.58,1.48,9.6,9.6,0,0,0-1.21,1.88,10.68,10.68,0,0,0-.79,2.18,9.94,9.94,0,0,0-.28,2.38Q101.66,523.71,104.39,523.71Z"/><path class="cls-3" d="M129,526.08a1,1,0,0,1-.84-.32,1.34,1.34,0,0,1-.22-.78l.34-3.74a14.63,14.63,0,0,1-1.47,2.09,10.63,10.63,0,0,1-1.67,1.6,7.42,7.42,0,0,1-1.83,1,5.34,5.34,0,0,1-1.92.36,4.22,4.22,0,0,1-3.57-1.68,8,8,0,0,1-1.27-4.87,14.29,14.29,0,0,1,.3-2.91,15,15,0,0,1,.86-2.78,13.58,13.58,0,0,1,1.35-2.47,10.32,10.32,0,0,1,1.75-2,7.89,7.89,0,0,1,2.1-1.31,6,6,0,0,1,2.38-.48,5.56,5.56,0,0,1,2.4.51,5.15,5.15,0,0,1,1.85,1.47l1.22-9.88h3.1l-3.23,26.12Zm-6.44-2.29a3.27,3.27,0,0,0,1.71-.52,7.16,7.16,0,0,0,1.67-1.45,12.51,12.51,0,0,0,1.51-2.22,17.63,17.63,0,0,0,1.21-2.81l.58-4.75a3.76,3.76,0,0,0-1.61-1.33,4.9,4.9,0,0,0-1.9-.39,4.14,4.14,0,0,0-2.53.83,7.27,7.27,0,0,0-1.92,2.15,11.24,11.24,0,0,0-1.21,3,12.66,12.66,0,0,0-.43,3.21,5.66,5.66,0,0,0,.76,3.22A2.45,2.45,0,0,0,122.52,523.8Z"/><path class="cls-3" d="M147.61,526.08a1,1,0,0,1-.84-.32,1.34,1.34,0,0,1-.22-.78l.34-3.74a14.63,14.63,0,0,1-1.47,2.09,10.63,10.63,0,0,1-1.67,1.6,7.42,7.42,0,0,1-1.83,1,5.34,5.34,0,0,1-1.92.36,4.22,4.22,0,0,1-3.57-1.68,8,8,0,0,1-1.27-4.87,14.29,14.29,0,0,1,.3-2.91,15,15,0,0,1,.86-2.78,13.58,13.58,0,0,1,1.35-2.47,10.32,10.32,0,0,1,1.75-2,7.89,7.89,0,0,1,2.1-1.31,6,6,0,0,1,2.38-.48,5.56,5.56,0,0,1,2.4.51,5.15,5.15,0,0,1,1.85,1.47l1.22-9.88h3.1l-3.23,26.12Zm-6.44-2.29a3.27,3.27,0,0,0,1.71-.52,7.16,7.16,0,0,0,1.67-1.45,12.51,12.51,0,0,0,1.51-2.22,17.63,17.63,0,0,0,1.21-2.81l.58-4.75a3.76,3.76,0,0,0-1.61-1.33,4.9,4.9,0,0,0-1.9-.39,4.14,4.14,0,0,0-2.53.83,7.27,7.27,0,0,0-1.92,2.15,11.24,11.24,0,0,0-1.21,3,12.66,12.66,0,0,0-.43,3.21,5.66,5.66,0,0,0,.76,3.22A2.45,2.45,0,0,0,141.18,523.8Z"/><path class="cls-3" d="M176.57,508.48l-2.15,17.61H171.3l1.9-15.32h-6.86l-1.81,14.75-.82,3.67a1.53,1.53,0,0,1-1.63,1.33h-1.24l2.43-19.72-1.76-.21q-.71-.09-.71-.71l.12-1.4h2.62l.12-1a9.62,9.62,0,0,1,.84-3,7.35,7.35,0,0,1,1.73-2.34,7.73,7.73,0,0,1,2.57-1.52,9.89,9.89,0,0,1,3.39-.54l.67,0,.69.07.66.11a3.49,3.49,0,0,1,.54.15l-.3,1.59a.36.36,0,0,1-.24.27,1.56,1.56,0,0,1-.49.06h-.94a9.11,9.11,0,0,0-2.55.32,5,5,0,0,0-1.83,1,4.44,4.44,0,0,0-1.19,1.61,8,8,0,0,0-.59,2.3l-.11.94Z"/><path class="cls-3" d="M194,512a4.86,4.86,0,0,1-.48,2.15,4.48,4.48,0,0,1-1.75,1.77,13.15,13.15,0,0,1-3.51,1.37,38.79,38.79,0,0,1-5.75.94c0,.13,0,.26,0,.38V519a5.55,5.55,0,0,0,1,3.63,3.83,3.83,0,0,0,3.13,1.25,5.9,5.9,0,0,0,1.52-.18,6.5,6.5,0,0,0,1.19-.43,5.37,5.37,0,0,0,.92-.57l.74-.57q.34-.26.62-.43a1.06,1.06,0,0,1,.57-.18.77.77,0,0,1,.58.3l.78,1a16.51,16.51,0,0,1-1.76,1.6,10.32,10.32,0,0,1-1.76,1.11,8,8,0,0,1-1.89.65,10.46,10.46,0,0,1-2.12.2,7.09,7.09,0,0,1-2.77-.51,5.73,5.73,0,0,1-2.07-1.46,6.59,6.59,0,0,1-1.31-2.3,9.26,9.26,0,0,1-.46-3,13.19,13.19,0,0,1,.29-2.76,12.93,12.93,0,0,1,.85-2.62,11.91,11.91,0,0,1,1.37-2.31,9.19,9.19,0,0,1,1.84-1.83,8.69,8.69,0,0,1,2.29-1.21,8,8,0,0,1,2.69-.44,6.45,6.45,0,0,1,2.36.39,5,5,0,0,1,1.63,1,4,4,0,0,1,.95,1.33A3.55,3.55,0,0,1,194,512Zm-5.43-1.83a4.6,4.6,0,0,0-2.06.46,5.48,5.48,0,0,0-1.67,1.27,7.75,7.75,0,0,0-1.24,1.9,11.33,11.33,0,0,0-.8,2.35,34.53,34.53,0,0,0,4.38-.77,10.92,10.92,0,0,0,2.54-.94,2.45,2.45,0,0,0,1.45-2.31,1.78,1.78,0,0,0-.59-1.29,2.47,2.47,0,0,0-.81-.47A3.45,3.45,0,0,0,188.61,510.14Z"/><path class="cls-3" d="M196.32,526.08,199.5,500h3.1l-3.17,26.12Z"/><path class="cls-3" d="M216.59,526.08a1,1,0,0,1-.84-.32,1.34,1.34,0,0,1-.22-.78l.34-3.74a14.63,14.63,0,0,1-1.47,2.09,10.63,10.63,0,0,1-1.67,1.6,7.42,7.42,0,0,1-1.83,1,5.34,5.34,0,0,1-1.92.36,4.22,4.22,0,0,1-3.57-1.68,8,8,0,0,1-1.27-4.87,14.29,14.29,0,0,1,.3-2.91,15,15,0,0,1,.86-2.78,13.58,13.58,0,0,1,1.35-2.47,10.32,10.32,0,0,1,1.75-2,7.89,7.89,0,0,1,2.1-1.31,6,6,0,0,1,2.38-.48,5.56,5.56,0,0,1,2.4.51,5.15,5.15,0,0,1,1.85,1.47l1.22-9.88h3.1l-3.23,26.12Zm-6.44-2.29a3.27,3.27,0,0,0,1.71-.52,7.16,7.16,0,0,0,1.67-1.45A12.51,12.51,0,0,0,215,519.6a17.63,17.63,0,0,0,1.21-2.81l.58-4.75a3.76,3.76,0,0,0-1.61-1.33,4.9,4.9,0,0,0-1.9-.39,4.14,4.14,0,0,0-2.53.83,7.27,7.27,0,0,0-1.92,2.15,11.24,11.24,0,0,0-1.21,3,12.66,12.66,0,0,0-.43,3.21,5.66,5.66,0,0,0,.76,3.22A2.45,2.45,0,0,0,210.15,523.8Z"/><path class="cls-3" d="M234.66,511a1.15,1.15,0,0,1-.28.31.61.61,0,0,1-.35.1,1,1,0,0,1-.54-.2c-.19-.13-.43-.27-.71-.43a5.9,5.9,0,0,0-1-.44,5.07,5.07,0,0,0-2.91,0,3.62,3.62,0,0,0-1.13.61,2.71,2.71,0,0,0-.74.91,2.47,2.47,0,0,0-.26,1.11,1.71,1.71,0,0,0,.55,1.33,5.05,5.05,0,0,0,1.38.86q.83.36,1.8.7a9.15,9.15,0,0,1,1.8.85,4.59,4.59,0,0,1,1.38,1.31,3.58,3.58,0,0,1,.55,2.07,6,6,0,0,1-1.89,4.37,6.91,6.91,0,0,1-2.2,1.37,7.7,7.7,0,0,1-2.88.51,7.15,7.15,0,0,1-3-.61,6.32,6.32,0,0,1-2.15-1.57l.78-1.21a1.09,1.09,0,0,1,.34-.35.92.92,0,0,1,.5-.12.87.87,0,0,1,.57.25c.19.17.43.35.71.56a4.38,4.38,0,0,0,2.71.81,4.38,4.38,0,0,0,1.57-.27,3.68,3.68,0,0,0,1.19-.71,3,3,0,0,0,.74-1,3.15,3.15,0,0,0,.26-1.27,1.91,1.91,0,0,0-.55-1.44,4.5,4.5,0,0,0-1.38-.89q-.83-.35-1.79-.67a9.07,9.07,0,0,1-1.79-.8,4.39,4.39,0,0,1-1.38-1.27,3.54,3.54,0,0,1-.55-2.08,5.5,5.5,0,0,1,.45-2.19,5.65,5.65,0,0,1,1.3-1.87,6.4,6.4,0,0,1,2.07-1.3,7.3,7.3,0,0,1,2.74-.49,7,7,0,0,1,2.85.54,6.58,6.58,0,0,1,2.12,1.46Z"/><path class="cls-3" d="M250.14,526.33a7,7,0,0,1-2.7-.5,5.93,5.93,0,0,1-2.11-1.46,6.76,6.76,0,0,1-1.38-2.34,9.31,9.31,0,0,1-.5-3.16,12.72,12.72,0,0,1,.71-4.27,11.61,11.61,0,0,1,1.94-3.51,9.19,9.19,0,0,1,2.91-2.38,7.76,7.76,0,0,1,3.63-.87,7,7,0,0,1,2.7.51,5.93,5.93,0,0,1,2.11,1.46,6.74,6.74,0,0,1,1.38,2.35,9.33,9.33,0,0,1,.5,3.15,12.66,12.66,0,0,1-.71,4.26,11.6,11.6,0,0,1-1.94,3.51,9.28,9.28,0,0,1-2.92,2.38A7.71,7.71,0,0,1,250.14,526.33Zm.28-2.46a4.16,4.16,0,0,0,2.36-.71,6.21,6.21,0,0,0,1.81-1.89,9.71,9.71,0,0,0,1.15-2.72,12.59,12.59,0,0,0,.41-3.23,6,6,0,0,0-1-3.74,3.35,3.35,0,0,0-2.82-1.26,4.18,4.18,0,0,0-2.37.7,6.16,6.16,0,0,0-1.8,1.88,9.71,9.71,0,0,0-1.15,2.72,12.59,12.59,0,0,0-.41,3.23,6.12,6.12,0,0,0,1,3.75A3.34,3.34,0,0,0,250.42,523.87Z"/><path class="cls-3" d="M261.56,526.08l2.15-18h1.58a.94.94,0,0,1,1.06,1.06l-.27,3.48a11.14,11.14,0,0,1,3.24-3.58,6.62,6.62,0,0,1,3.73-1.21,3.81,3.81,0,0,1,3.11,1.35,6.07,6.07,0,0,1,1.11,3.94c0,.24,0,.48,0,.73s0,.51-.07.78l-1.35,11.44h-3.16L274,514.65q0-.35.06-.68c0-.22,0-.43,0-.63a3.51,3.51,0,0,0-.54-2.15,2,2,0,0,0-1.69-.7,3.7,3.7,0,0,0-1.73.46,6.76,6.76,0,0,0-1.69,1.3,10.62,10.62,0,0,0-1.52,2,14.36,14.36,0,0,0-1.2,2.67l-1,9.13Z"/><path class="cls-3" d="M288.61,522.7c0-.07,0-.16,0-.27s0-.28,0-.49,0-.49.08-.83.09-.79.16-1.35l1.12-9h-2a.55.55,0,0,1-.38-.13.53.53,0,0,1-.15-.42s0-.11,0-.21l0-.36.05-.42q0-.21,0-.41l2.77-.37,1.33-5.55a.85.85,0,0,1,.27-.43.71.71,0,0,1,.48-.17h1.67l-.78,6.19h4.72l-.27,2.29h-4.73L292,519.59q-.09.73-.13,1.17l-.07.71,0,.37c0,.07,0,.13,0,.16a1.87,1.87,0,0,0,.42,1.34,1.51,1.51,0,0,0,1.14.43,2.31,2.31,0,0,0,.82-.13,3.4,3.4,0,0,0,.61-.29l.43-.29a.55.55,0,0,1,.32-.13.32.32,0,0,1,.22.07.9.9,0,0,1,.17.23l.66,1.51a6.42,6.42,0,0,1-2,1.2,6.07,6.07,0,0,1-2.23.43,3.79,3.79,0,0,1-2.71-.94A3.69,3.69,0,0,1,288.61,522.7Z"/><path class="cls-3" d="M299.34,526.08,302.5,500h3.16l-1.47,12.13a10.61,10.61,0,0,1,3.11-3.17,6.52,6.52,0,0,1,3.5-1.07,3.82,3.82,0,0,1,3.14,1.35,6.07,6.07,0,0,1,1.1,3.92c0,.24,0,.48,0,.74s0,.52-.07.79l-1.35,11.44h-3.16l1.35-11.44q0-.35.06-.68t0-.63a3.55,3.55,0,0,0-.54-2.16,2,2,0,0,0-1.71-.71,3.57,3.57,0,0,0-1.64.43,6.65,6.65,0,0,0-1.64,1.23,10.42,10.42,0,0,0-1.49,1.92,14.3,14.3,0,0,0-1.21,2.51l-1.15,9.52Z"/><path class="cls-3" d="M332.36,512a4.86,4.86,0,0,1-.48,2.15,4.48,4.48,0,0,1-1.75,1.77,13.15,13.15,0,0,1-3.51,1.37,38.79,38.79,0,0,1-5.75.94c0,.13,0,.26,0,.38V519a5.55,5.55,0,0,0,1,3.63,3.83,3.83,0,0,0,3.13,1.25,5.9,5.9,0,0,0,1.52-.18,6.5,6.5,0,0,0,1.19-.43,5.37,5.37,0,0,0,.92-.57l.74-.57q.34-.26.62-.43a1.06,1.06,0,0,1,.57-.18.77.77,0,0,1,.58.3l.78,1a16.51,16.51,0,0,1-1.76,1.6,10.32,10.32,0,0,1-1.76,1.11,8,8,0,0,1-1.89.65,10.46,10.46,0,0,1-2.12.2,7.09,7.09,0,0,1-2.77-.51,5.73,5.73,0,0,1-2.07-1.46,6.59,6.59,0,0,1-1.31-2.3,9.26,9.26,0,0,1-.46-3,13.19,13.19,0,0,1,.29-2.76,12.93,12.93,0,0,1,.85-2.62,11.91,11.91,0,0,1,1.37-2.31,9.19,9.19,0,0,1,1.84-1.83,8.69,8.69,0,0,1,2.29-1.21,8,8,0,0,1,2.69-.44,6.45,6.45,0,0,1,2.36.39,5,5,0,0,1,1.63,1,4,4,0,0,1,.95,1.33A3.55,3.55,0,0,1,332.36,512Zm-5.43-1.83a4.6,4.6,0,0,0-2.06.46,5.48,5.48,0,0,0-1.67,1.27,7.75,7.75,0,0,0-1.24,1.9,11.33,11.33,0,0,0-.8,2.35,34.53,34.53,0,0,0,4.38-.77,10.92,10.92,0,0,0,2.54-.94,2.45,2.45,0,0,0,1.45-2.31,1.78,1.78,0,0,0-.59-1.29,2.47,2.47,0,0,0-.81-.47A3.45,3.45,0,0,0,326.93,510.14Z"/><path class="cls-3" d="M341.49,526.08,344.66,500h3.1l-3.17,26.12Z"/><path class="cls-3" d="M364,512a4.86,4.86,0,0,1-.48,2.15,4.48,4.48,0,0,1-1.75,1.77,13.15,13.15,0,0,1-3.51,1.37,38.79,38.79,0,0,1-5.75.94c0,.13,0,.26,0,.38V519a5.55,5.55,0,0,0,1,3.63,3.83,3.83,0,0,0,3.13,1.25,5.9,5.9,0,0,0,1.52-.18,6.5,6.5,0,0,0,1.19-.43,5.37,5.37,0,0,0,.92-.57l.74-.57q.34-.26.62-.43a1.06,1.06,0,0,1,.57-.18.77.77,0,0,1,.58.3l.78,1a16.51,16.51,0,0,1-1.76,1.6,10.32,10.32,0,0,1-1.76,1.11,8,8,0,0,1-1.89.65,10.46,10.46,0,0,1-2.12.2,7.09,7.09,0,0,1-2.77-.51,5.73,5.73,0,0,1-2.07-1.46,6.59,6.59,0,0,1-1.31-2.3,9.26,9.26,0,0,1-.46-3,13.19,13.19,0,0,1,.29-2.76,12.93,12.93,0,0,1,.85-2.62,11.91,11.91,0,0,1,1.37-2.31,9.19,9.19,0,0,1,1.84-1.83,8.69,8.69,0,0,1,2.29-1.21,8,8,0,0,1,2.69-.44,6.45,6.45,0,0,1,2.36.39,5,5,0,0,1,1.63,1,4,4,0,0,1,.95,1.33A3.55,3.55,0,0,1,364,512Zm-5.43-1.83a4.6,4.6,0,0,0-2.06.46,5.48,5.48,0,0,0-1.67,1.27,7.75,7.75,0,0,0-1.24,1.9,11.33,11.33,0,0,0-.8,2.35,34.53,34.53,0,0,0,4.38-.77,10.92,10.92,0,0,0,2.54-.94,2.45,2.45,0,0,0,1.45-2.31,1.78,1.78,0,0,0-.59-1.29,2.47,2.47,0,0,0-.81-.47A3.45,3.45,0,0,0,358.55,510.14Z"/><path class="cls-3" d="M371.33,510.75l-1.79,14.75-.82,3.67a1.53,1.53,0,0,1-1.63,1.33h-1.24l2.39-19.7-1.77-.23a1.21,1.21,0,0,1-.48-.25.59.59,0,0,1-.18-.46l.14-1.38h2.57l.21-1.74a8.81,8.81,0,0,1,.77-2.74,6.74,6.74,0,0,1,1.45-2,6,6,0,0,1,2-1.25,6.8,6.8,0,0,1,2.42-.43,5.35,5.35,0,0,1,2,.36l-.3,1.63a.34.34,0,0,1-.24.31,1.85,1.85,0,0,1-.52.06h-.74a4.33,4.33,0,0,0-1.41.22,3,3,0,0,0-1.14.72,4,4,0,0,0-.83,1.29,7.28,7.28,0,0,0-.48,1.94l-.21,1.64H376l-.3,2.27Z"/><path class="cls-3" d="M378.25,522.7c0-.07,0-.16,0-.27s0-.28,0-.49,0-.49.08-.83.09-.79.16-1.35l1.12-9h-2a.55.55,0,0,1-.38-.13.53.53,0,0,1-.15-.42s0-.11,0-.21l0-.36.05-.42q0-.21,0-.41l2.77-.37,1.33-5.55a.85.85,0,0,1,.27-.43.71.71,0,0,1,.48-.17h1.67l-.78,6.19h4.72l-.27,2.29h-4.73l-1.08,8.83q-.09.73-.13,1.17l-.07.71,0,.37c0,.07,0,.13,0,.16a1.87,1.87,0,0,0,.42,1.34,1.51,1.51,0,0,0,1.14.43,2.31,2.31,0,0,0,.82-.13,3.4,3.4,0,0,0,.61-.29l.43-.29a.55.55,0,0,1,.32-.13.32.32,0,0,1,.22.07.9.9,0,0,1,.17.23l.66,1.51a6.42,6.42,0,0,1-2,1.2,6.07,6.07,0,0,1-2.23.43,3.79,3.79,0,0,1-2.71-.94A3.69,3.69,0,0,1,378.25,522.7Z"/><path d="M388.37,524.13a2.24,2.24,0,0,1,.17-.87,2.14,2.14,0,0,1,.47-.71,2.31,2.31,0,0,1,.7-.48,2.15,2.15,0,0,1,.88-.18,2.11,2.11,0,0,1,.86.18,2.32,2.32,0,0,1,.7.48,2.29,2.29,0,0,1,.48.71,2.16,2.16,0,0,1,.18.87,2.13,2.13,0,0,1-.18.88,2.32,2.32,0,0,1-.48.7,2.18,2.18,0,0,1-1.56.64,2.23,2.23,0,0,1-.88-.17,2.18,2.18,0,0,1-1.17-1.17A2.21,2.21,0,0,1,388.37,524.13Z"/><rect class="cls-4" x="62.94" y="54" width="256" height="290"/></g></g></svg>